<?xml version="1.0" encoding="UTF-8"?>
<svg version="1.1" xmlns="http://www.w3.org/2000/svg" width="864" height="1184">
<path d="M0 0 C285.12 0 570.24 0 864 0 C864 390.72 864 781.44 864 1184 C578.88 1184 293.76 1184 0 1184 C0 793.28 0 402.56 0 0 Z " fill="#2A1A3C" transform="translate(0,0)"/>
<path d="M0 0 C0 36.96 0 73.92 0 112 C-8.25 116.62 -16.5 121.24 -25 126 C-28.3 127.98 -31.6 129.96 -35 132 C-28.62976855 139.67694559 -21.70057377 146.61620955 -14.12109375 153.09765625 C-10.62781589 156.23066973 -7.37772785 159.60362874 -4.1015625 162.9609375 C-2.16903954 165.04126091 -2.16903954 165.04126091 0 166 C0 201.31 0 236.62 0 273 C-11.88 273 -23.76 273 -36 273 C-35.89937256 270.28338135 -35.79874512 267.5667627 -35.69506836 264.76782227 C-35.37776273 255.6888133 -35.20364392 246.61085371 -35.09584713 237.52707005 C-35.02636932 232.02930153 -34.91207858 226.54088347 -34.68676758 221.04711914 C-32.71908775 193.01837903 -32.71908775 193.01837903 -44.20467854 168.64310741 C-49.59157628 163.05217745 -55.61078422 158.38647309 -62 154 C-62.72908066 153.41879898 -63.45816132 152.83759796 -64.20933533 152.23878479 C-65.97211006 150.7499832 -65.97211006 150.7499832 -68.4375 151.125 C-69.7059375 151.558125 -69.7059375 151.558125 -71 152 C-71.86425095 152.28261185 -72.72850189 152.56522369 -73.61894226 152.85639954 C-76.47724195 155.42964773 -76.40067572 156.12195284 -76.63923645 159.84049988 C-76.67159741 161.95096503 -76.67608653 164.06195995 -76.65942383 166.17260742 C-76.66990753 167.32396683 -76.68039124 168.47532623 -76.69119263 169.66157532 C-76.72004989 173.47647701 -76.7136381 177.29047699 -76.70703125 181.10546875 C-76.7201397 183.74678186 -76.73544128 186.38808493 -76.75285339 189.02937317 C-76.79033045 195.27668869 -76.80244351 201.52378651 -76.8054778 207.77120334 C-76.8106244 215.58130121 -76.84956671 223.39118283 -76.88867188 231.20117188 C-76.95828591 245.13417621 -76.97671074 259.0666702 -77 273 C-103.73 273 -130.46 273 -158 273 C-154.83045659 269.83045659 -151.7102696 268.20104701 -147.734375 266.3125 C-147.02275208 265.96872314 -146.31112915 265.62494629 -145.57794189 265.27075195 C-143.30473896 264.17461787 -141.02738867 263.08740614 -138.75 262 C-137.23281194 261.26877041 -135.71588194 260.53700513 -134.19921875 259.8046875 C-132.73200353 259.09847469 -131.26456263 258.3927305 -129.796875 257.6875 C-129.12058044 257.36241455 -128.44428589 257.0373291 -127.74749756 256.70239258 C-126.77178802 256.23675903 -126.77178802 256.23675903 -125.77636719 255.76171875 C-124.93389435 255.358927 -124.93389435 255.358927 -124.07440186 254.94799805 C-121.07339124 253.57654141 -118.03383622 252.29689796 -115 251 C-115.01024436 249.5731702 -115.01024436 249.5731702 -115.02069569 248.11751556 C-115.1839452 224.96510517 -115.27234591 201.81332918 -115.28240681 178.66033173 C-115.28900253 167.46352709 -115.31985725 156.26777349 -115.40795898 145.07128906 C-115.48469383 135.31153563 -115.51577218 125.55288321 -115.49218339 115.79283762 C-115.48128404 110.62508785 -115.49313777 105.45966308 -115.55968666 100.2922821 C-115.62164261 95.42548697 -115.62242525 90.56246876 -115.5768013 85.69552994 C-115.57077068 83.91210832 -115.5868699 82.12844964 -115.62704659 80.34547043 C-115.74107665 74.95622873 -115.66177475 70.16046678 -114 65 C-110.06749834 61.09507721 -106.09059077 59.20852555 -101 57 C-98.82636796 55.77225586 -96.66415297 54.52383771 -94.51953125 53.24609375 C-92.28501399 51.9745222 -90.04929758 50.70505599 -87.8125 49.4375 C-85.34832957 48.03626011 -82.88511889 46.63333659 -80.421875 45.23046875 C-79.80280777 44.87816193 -79.18374054 44.5258551 -78.5459137 44.16287231 C-72.20307486 40.55122622 -65.88170529 36.90284004 -59.5625 33.25 C-51.01460123 28.31021766 -42.45333883 23.39525186 -33.87207031 18.51367188 C-29.03893381 15.75775574 -24.22857466 12.96637786 -19.43359375 10.14453125 C-18.33160645 9.49685791 -17.22961914 8.84918457 -16.09423828 8.18188477 C-13.94060038 6.91408706 -11.78915273 5.64255984 -9.64013672 4.36694336 C-8.67221191 3.7972583 -7.70428711 3.22757324 -6.70703125 2.640625 C-5.41502808 1.87540527 -5.41502808 1.87540527 -4.09692383 1.09472656 C-2 0 -2 0 0 0 Z " fill="#1A93D9" transform="translate(424,434)"/>
<path d="M0 0 C8.21824827 4.48268088 16.42824117 8.97837533 24.625 13.5 C25.25216919 13.84593201 25.87933838 14.19186401 26.5255127 14.54827881 C38.3579313 21.07688272 50.15591907 27.66578352 61.93945312 34.28222656 C65.94996265 36.53317942 69.96265859 38.78021659 73.97558594 41.02685547 C87.65118734 48.68314603 101.32527128 56.34215192 115 64 C115 87.1 115 110.2 115 134 C117.97 134.99 120.94 135.98 124 137 C126.62282102 138.14099753 129.19860959 139.30187132 131.7734375 140.5390625 C132.46386139 140.86538666 133.15428528 141.19171082 133.8656311 141.52792358 C136.03773448 142.55548645 138.20650404 143.58984913 140.375 144.625 C142.56547554 145.66606575 144.75663314 146.70565988 146.94863892 147.74349976 C148.30412816 148.3857457 149.65864607 149.03004681 151.01205444 149.67666626 C153.65376048 150.93209562 156.22157292 152.07385764 159 153 C159 153.66 159 154.32 159 155 C106.53 155 54.06 155 0 155 C0 103.85 0 52.7 0 0 Z " fill="#20A3D1" transform="translate(438,552)"/>
<path d="M0 0 C2.04199219 1.11645508 2.04199219 1.11645508 4.046875 2.51953125 C4.80049316 3.0410376 5.55411133 3.56254395 6.33056641 4.09985352 C7.52818604 4.94761353 7.52818604 4.94761353 8.75 5.8125 C9.58837402 6.39636475 10.42674805 6.98022949 11.29052734 7.58178711 C13.86651263 9.37925132 16.43398302 11.18834218 19 13 C20.47638778 14.03670719 21.95294095 15.07317892 23.4296875 16.109375 C26.93286751 18.57241554 30.42798431 21.04664365 33.92041016 23.52490234 C37.38110927 25.97965041 40.84655516 28.42766637 44.3125 30.875 C45.00617676 31.36492432 45.69985352 31.85484863 46.41455078 32.35961914 C51.93302645 36.25408625 57.46500807 40.12905406 63 44 C78.08248318 54.55153738 93.14277988 65.13209061 108 76 C108.68851547 76.385047 109.37703094 76.77009399 110.08641052 77.16680908 C112 79 112 79 112.48101807 81.98027039 C112.47213562 83.19938614 112.46325317 84.41850189 112.45410156 85.67456055 C112.45468567 86.347995 112.45526978 87.02142944 112.45587158 87.715271 C112.45308639 89.93961264 112.42197713 92.16261147 112.390625 94.38671875 C112.38316408 95.92942065 112.37747044 97.47213203 112.37347412 99.0148468 C112.35820584 103.07408848 112.31891445 107.13275711 112.2746582 111.19177246 C112.23373083 115.33414965 112.21546857 119.4766195 112.1953125 123.61914062 C112.15242072 131.74635665 112.0841557 139.87310703 112 148 C108.21532601 146.5244404 104.78626021 144.83114741 101.265625 142.796875 C100.14696045 142.15339111 99.0282959 141.50990723 97.87573242 140.84692383 C97.28537201 140.50545319 96.6950116 140.16398254 96.08676147 139.81216431 C92.93820281 137.99141257 89.78327196 136.18176024 86.62890625 134.37109375 C85.6659539 133.8178669 85.6659539 133.8178669 84.68354797 133.25346375 C78.54275604 129.72914312 72.36989781 126.26327735 66.1875 122.8125 C58.27938817 118.3964111 50.38175798 113.96296848 42.5 109.5 C27.36965618 100.93513291 12.19836184 92.44353435 -3 84 C-3 68.82 -3 53.64 -3 38 C-12.23149565 43.1927163 -21.43646211 48.38282283 -30.5625 53.75 C-39.71011615 59.10958742 -48.90850394 64.37077561 -58.14916992 69.56811523 C-64.1684863 72.9554011 -70.15028564 76.3934697 -76.0859375 79.92578125 C-78 81 -78 81 -79 81 C-81.33964452 52.78508692 -81.33964452 52.78508692 -77.86621094 45.68115234 C-74.72673666 42.24402332 -70.61280297 40.70175627 -66.34814453 39.03369141 C-61.96322888 37.10338023 -58.1707258 34.22504878 -54.25 31.5 C-52.46864664 30.30745386 -50.68469191 29.11878625 -48.8984375 27.93359375 C-45.20780594 25.47338358 -41.51884585 23.01069668 -37.8314209 20.54568481 C-35.43520662 18.94403352 -33.03836789 17.34331802 -30.64147949 15.74267578 C-29.48371973 14.96918249 -28.32623875 14.19527172 -27.16906738 13.42089844 C-24.47827746 11.62034351 -21.78358594 9.82635956 -19.08105469 8.04345703 C-17.01613312 6.67393298 -14.96465053 5.28394086 -12.92675781 3.87451172 C-11.96350586 3.22369629 -11.00025391 2.57288086 -10.0078125 1.90234375 C-9.16105957 1.31831787 -8.31430664 0.73429199 -7.44189453 0.13256836 C-4.40424294 -1.27631644 -3.13400829 -1.07749174 0 0 Z " fill="#30D7AF" transform="translate(441,372)"/>
<path d="M0 0 C7.38438774 3.69219387 14.57624147 7.36316211 21.6875 11.5 C23.51374327 12.55308918 25.340593 13.60512718 27.16796875 14.65625 C28.11591309 15.20152344 29.06385742 15.74679687 30.04052734 16.30859375 C35.17331003 19.24209635 40.33751154 22.11920201 45.5 25 C54.03608501 29.76723447 62.54286518 34.58126299 71.02270508 39.44775391 C79.07986993 44.063926 87.18449695 48.59415891 95.30078125 53.10546875 C112.93615183 62.93615183 112.93615183 62.93615183 115 65 C115.09405142 66.9943173 115.11743249 68.99199543 115.11352539 70.98852539 C115.11341209 72.91040428 115.11341209 72.91040428 115.11329651 74.87110901 C115.10818909 76.27995848 115.10297309 77.68880756 115.09765625 79.09765625 C115.09579202 80.53112234 115.09436814 81.96458907 115.09336853 83.39805603 C115.08954372 87.17759957 115.07971377 90.9571049 115.06866455 94.7366333 C115.05844963 98.59069298 115.05387074 102.44475882 115.04882812 106.29882812 C115.03809146 113.86590287 115.02101549 121.43294609 115 129 C110.63857293 127.59485929 106.81869899 125.95518518 102.80859375 123.7265625 C102.2308168 123.40706635 101.65303986 123.08757019 101.05775452 122.75839233 C99.18149093 121.71896051 97.30945387 120.67217033 95.4375 119.625 C94.12256532 118.8942262 92.80745929 118.16376064 91.4921875 117.43359375 C83.30156603 112.87900819 75.15260825 108.25409173 67.03051758 103.57836914 C59.6102565 99.31833852 52.12243227 95.18444278 44.625 91.0625 C29.67342829 82.8422467 14.81428864 74.46530779 0 66 C0 44.22 0 22.44 0 0 Z " fill="#2AC2BD" transform="translate(438,471)"/>
<path d="M0 0 C6.73991754 5.10512903 12.0613463 12.6716573 13.31787109 21.14306641 C14.31193246 32.84895276 12.94975782 42.41752365 5.4375 51.75 C-2.72610314 60.33926588 -12.74416079 63.93897308 -24.3125 64.375 C-34.40002295 64.18819402 -42.55882515 60.75278422 -50 54 C-50.54398437 53.51015625 -51.08796875 53.0203125 -51.6484375 52.515625 C-57.64030266 46.37168204 -61.2035422 37.35587483 -61.5 28.8125 C-60.82037804 17.75970075 -56.23522103 8.72221889 -48.1875 1.1875 C-34.48033459 -10.13010209 -14.61699298 -9.5787954 0 0 Z " fill="#F9F9F9" transform="translate(548,779)"/>
<path d="M0 0 C5.713125 -0.061875 11.42625 -0.12375 17.3125 -0.1875 C19.09180908 -0.21481201 20.87111816 -0.24212402 22.7043457 -0.27026367 C33.74511813 -0.3699409 44.46877005 -0.17939791 53.33984375 7.2890625 C58.05642051 12.14991102 59.24938717 16.71794352 59.5 23.4375 C59.24760137 30.94853512 57.43861778 36.26398981 52.4375 41.875 C51.633125 42.57625 50.82875 43.2775 50 44 C48.99407247 44.99403713 47.99278006 45.99283182 47 47 C47.68707031 48.02480469 48.37414062 49.04960938 49.08203125 50.10546875 C49.99224954 51.46610433 50.90240233 52.82678373 51.8125 54.1875 C52.26431641 54.86103516 52.71613281 55.53457031 53.18164062 56.22851562 C60 66.43117016 60 66.43117016 60 69 C48.32016909 70.55288661 48.32016909 70.55288661 43 69 C39.0242094 65.14603028 37.20454093 61.08236058 35 56 C34.44054687 55.07574219 33.88109375 54.15148437 33.3046875 53.19921875 C32 51 32 51 32 49 C26.72 49 21.44 49 16 49 C16 55.6 16 62.2 16 69 C10.72 69 5.44 69 0 69 C0 46.23 0 23.46 0 0 Z " fill="#F8F8F8" transform="translate(184,773)"/>
<path d="M0 0 C4.62 0 9.24 0 14 0 C14 2.31 14 4.62 14 7 C14.54269531 6.57847656 15.08539062 6.15695312 15.64453125 5.72265625 C16.35996094 5.17480469 17.07539062 4.62695312 17.8125 4.0625 C18.52019531 3.51722656 19.22789062 2.97195313 19.95703125 2.41015625 C25.46999159 -1.39515672 32.60947238 -0.58779185 39 0 C46.48101629 2.13174099 51.21190187 6.29894192 55 13 C58.74523243 19.94932861 59.15874702 27.31517334 57.2734375 34.9375 C54.43086033 43.44212111 51.13955315 48.05558911 43.3125 52.375 C37.72265918 54.96808405 33.10093052 56.33427641 27 55 C18.77345538 51.77345538 18.77345538 51.77345538 16 49 C15.67 56.92 15.34 64.84 15 73 C10.05 73 5.1 73 0 73 C0 48.91 0 24.82 0 0 Z " fill="#F8F8F8" transform="translate(573,788)"/>
<path d="M0 0 C4.95 0 9.9 0 15 0 C15.33 2.31 15.66 4.62 16 7 C16.9075 6.21625 17.815 5.4325 18.75 4.625 C24.45388983 -0.30108667 29.19351099 -0.42469819 36.63671875 -0.32421875 C41.07448671 0.10358002 42.80144416 0.97433907 46 4 C46.928125 4.804375 46.928125 4.804375 47.875 5.625 C49 7 49 7 49 9 C49.75925781 8.43410156 50.51851563 7.86820313 51.30078125 7.28515625 C52.29464844 6.55167969 53.28851563 5.81820312 54.3125 5.0625 C55.29863281 4.33160156 56.28476562 3.60070312 57.30078125 2.84765625 C63.22732964 -1.20915618 70.07168921 -0.66057065 77 0 C82.91050788 1.9579701 86.06281895 5.85860657 89.08984375 11.1328125 C91.26991721 15.60523788 91.12839155 19.74788276 91.09765625 24.60546875 C91.0962413 25.44467361 91.09482635 26.28387848 91.09336853 27.14851379 C91.08777215 29.82821216 91.07522035 32.5078269 91.0625 35.1875 C91.05748453 37.00455608 91.05292171 38.82161348 91.04882812 40.63867188 C91.03780391 45.09248013 91.02054178 49.54622589 91 54 C85.72 54 80.44 54 75 54 C74.97421875 51.51984375 74.9484375 49.0396875 74.921875 46.484375 C74.88344471 44.07817307 74.83828791 41.67218473 74.79248047 39.26611328 C74.76428282 37.59596989 74.74306221 35.92569335 74.72900391 34.25537109 C74.70755663 31.85184628 74.66090155 29.44992017 74.609375 27.046875 C74.60814636 26.30193787 74.60691772 25.55700073 74.60565186 24.78948975 C74.50697358 21.28434483 74.2795842 19.35665182 72.08691406 16.55957031 C68.28936578 13.72162712 65.75160647 13.52483935 61 14 C58.02327416 15.77280561 55.57195993 17.85608015 54 21 C53.84373424 23.47832659 53.74186802 25.93311331 53.68359375 28.4140625 C53.66281265 29.14370209 53.64203156 29.87334167 53.62062073 30.62509155 C53.55518083 32.95829763 53.49626632 35.29161721 53.4375 37.625 C53.39430947 39.20574095 53.35069501 40.78647039 53.30664062 42.3671875 C53.19870631 46.24467697 53.09959245 50.1222513 53 54 C48.05 54 43.1 54 38 54 C37.97421875 51.60363281 37.9484375 49.20726562 37.921875 46.73828125 C37.88342234 44.40816686 37.83827281 42.07827136 37.79248047 39.74829102 C37.76431814 38.13348911 37.74308 36.51855057 37.72900391 34.90356445 C37.70750742 32.57692763 37.66082789 30.25192523 37.609375 27.92578125 C37.60814636 27.20787918 37.60691772 26.48997711 37.60565186 25.75032043 C37.46538804 20.91096795 36.43574046 18.40318372 33 15 C29.93570224 13.46785112 27.3834358 13.77061452 24 14 C21.26035943 15.21761803 19.57986425 16.14715351 17.88916016 18.63378906 C16.65148068 21.92747096 16.64317589 25.13484997 16.5859375 28.609375 C16.56657135 29.33618469 16.5472052 30.06299438 16.5272522 30.81182861 C16.46765729 33.12443448 16.42115242 35.43709067 16.375 37.75 C16.33680164 39.32163582 16.29774883 40.89325113 16.2578125 42.46484375 C16.16036938 46.30978671 16.0806447 50.15452137 16 54 C10.72 54 5.44 54 0 54 C0 36.18 0 18.36 0 0 Z " fill="#F5F5F6" transform="translate(385,788)"/>
<path d="M0 0 C2.05078125 1.125 2.05078125 1.125 3.9375 2.375 C4.57042969 2.7875 5.20335937 3.2 5.85546875 3.625 C10.9684636 7.46247161 14.07762975 12.2792138 15.9375 18.375 C17.21901649 27.46022262 16.16879031 34.78165895 10.9375 42.375 C6.2388644 48.24829449 -0.61392117 52.26515031 -8.0625 53.375 C-17.79493212 54.28694832 -25.5700489 52.35294944 -33.375 46.375 C-39.39178622 40.66332464 -42.26820618 32.89375793 -42.625 24.6875 C-42.26368795 17.72220664 -39.55870123 10.95832731 -34.76953125 5.79296875 C-25.06378353 -2.26924275 -11.86671243 -4.77908555 0 0 Z " fill="#F9F8F8" transform="translate(358.0625,789.625)"/>
<path d="M0 0 C6.97482714 7.36231753 9.12784948 13.74011162 8.96020508 23.75146484 C8.51581624 31.57960839 6.02315309 36.87398466 0.24609375 42.234375 C-6.31108555 47.46021049 -11.8154845 48.73716418 -20.0625 48.75 C-21.28743164 48.78673828 -21.28743164 48.78673828 -22.53710938 48.82421875 C-29.51707782 48.85758912 -34.38107669 46.91987012 -39.921875 42.734375 C-46.42694932 36.10048733 -49.13084695 30.89433583 -49.3125 21.4375 C-49.22234626 13.34225182 -47.3328574 8.3395096 -41.953125 2.38671875 C-30.13722055 -9.02744494 -13.47447414 -7.96218927 0 0 Z " fill="#FAF9F9" transform="translate(300.75,793.625)"/>
<path d="M0 0 C0 4.15062706 -2.26395507 5.74344996 -5 8.5625 C-9.12082605 12.9312446 -13.00056108 17.3749429 -16.70703125 22.10546875 C-19.75118155 25.94825473 -22.87657624 29.72155903 -26 33.5 C-30.33558576 38.75198642 -34.64387278 44.02105031 -38.8828125 49.3515625 C-43.37084563 54.96574416 -47.91875536 60.53179399 -52.45751953 66.10498047 C-53.83654062 67.79918144 -55.2135234 69.4950114 -56.58984375 71.19140625 C-60.9556133 76.55719823 -65.39765162 81.8353068 -70 87 C-73.92938593 85.37760438 -76.75805675 82.68217542 -79.8125 79.8125 C-80.61252441 79.0704834 -80.61252441 79.0704834 -81.42871094 78.31347656 C-84.81784146 75.15509535 -88.11525254 71.92054485 -91.35546875 68.609375 C-93.18852059 66.81550954 -95.10965391 65.16230967 -97.0625 63.5 C-100.79822618 60.28858627 -103.88672148 56.81376619 -107 53 C-105.26461877 51.12997712 -103.5140665 49.28011908 -101.75 47.4375 C-101.25886719 46.90447266 -100.76773437 46.37144531 -100.26171875 45.82226562 C-96.57809329 42.01585265 -96.57809329 42.01585265 -93.86328125 41.94140625 C-91.6309608 43.20966378 -90.1766887 44.60680107 -88.4375 46.5 C-83.66928564 51.47552803 -78.38980144 55.71986356 -73 60 C-69.55220914 58.49993609 -67.17639467 56.49590738 -64.4375 53.9375 C-60.05278656 49.91817934 -55.53998185 46.12475259 -50.91796875 42.3828125 C-47.74582357 39.79243959 -44.61963623 37.15309272 -41.5 34.5 C-34.84993136 28.85111167 -28.09878197 23.33175845 -21.328125 17.828125 C-14.14360301 11.97253194 -7.0597919 6.00475145 0 0 Z " fill="#33E0AE" transform="translate(603,332)"/>
<path d="M0 0 C1.09538086 -0.01836914 1.09538086 -0.01836914 2.21289062 -0.03710938 C8.75117859 -0.05448304 15.06113282 0.83253581 20.8125 4.1875 C20.14079194 7.9938457 19.08503436 11.53956816 17.8125 15.1875 C17.06226563 14.9709375 16.31203125 14.754375 15.5390625 14.53125 C4.64314728 11.33545987 4.64314728 11.33545987 -6.1875 13.1875 C-6.1875 14.8375 -6.1875 16.4875 -6.1875 18.1875 C-2.02437214 19.85275114 1.90769058 21.27468027 6.3125 22.125 C12.36178327 23.4100809 17.10529828 25.30957811 21.3125 29.9375 C23.70464413 35.12047894 23.57374262 39.03064591 21.6875 44.375 C18.42994552 49.26133171 14.41666491 52.4753258 8.8125 54.1875 C5.6223736 54.55035443 2.45891905 54.61542471 -0.75 54.625 C-1.6359082 54.62886719 -2.52181641 54.63273438 -3.43457031 54.63671875 C-10.94293151 54.50532927 -16.60595496 52.93309474 -23.1875 49.1875 C-22.46508802 45.07045306 -21.16396289 41.88262628 -19.1875 38.1875 C-13.52730864 40.030353 -13.52730864 40.030353 -10.8984375 41.24609375 C-7.63413294 42.37966349 -4.94846909 42.41825332 -1.5 42.375 C-0.36175781 42.36855469 0.77648437 42.36210938 1.94921875 42.35546875 C4.75697181 42.37945839 4.75697181 42.37945839 6.8125 41.1875 C6.8125 39.5375 6.8125 37.8875 6.8125 36.1875 C2.13460738 33.40925921 -3.17469407 33.04333746 -8.4609375 32.1640625 C-13.53714955 30.83381825 -16.99926233 28.85103274 -20.0625 24.5625 C-22.02366669 18.67899994 -22.27934915 13.45518669 -19.5625 7.8125 C-13.72146456 1.35661872 -8.38586986 0.00721055 0 0 Z " fill="#F8F8F8" transform="translate(660.1875,787.8125)"/>
<path d="M0 0 C3.32244797 1.47115824 5.55775291 3.33687785 8 6 C8.78375 6.845625 9.5675 7.69125 10.375 8.5625 C14.12663181 14.18994772 14.93916179 19.31936459 14 26 C11.79193444 32.53890661 8.73473094 37.17684604 3 41 C-2.58094114 43.63570498 -7.93049128 43.771481 -14 43 C-20.56659268 40.43276991 -24.411136 35.89400228 -27.75 29.8125 C-29.79060762 24.62642539 -29.90784084 19.17458809 -28.37890625 13.828125 C-22.91009732 1.28632319 -12.5867949 -1.37688365 0 0 Z " fill="#2B1B3D" transform="translate(532,786)"/>
<path d="M0 0 C0.22346359 4.44711646 0.38620917 8.89121982 0.49438477 13.34228516 C0.53949166 14.85393198 0.60080227 16.36518934 0.67895508 17.87548828 C1.30665241 30.3227674 1.30665241 30.3227674 -1.67431641 34.14916992 C-4.03964575 35.75355998 -6.37748352 36.86806224 -9 38 C-10.72862801 38.994747 -12.44732175 40.00693418 -14.15625 41.03515625 C-15.93559233 42.04763078 -17.71686124 43.05672668 -19.5 44.0625 C-20.82837891 44.81756836 -20.82837891 44.81756836 -22.18359375 45.58789062 C-23.93435961 46.5815338 -25.6869218 47.57201963 -27.44140625 48.55908203 C-29.16117979 49.52760335 -30.87729014 50.50265549 -32.58984375 51.48388672 C-33.79833984 52.1705542 -33.79833984 52.1705542 -35.03125 52.87109375 C-35.74861328 53.28157959 -36.46597656 53.69206543 -37.20507812 54.11499023 C-39 55 -39 55 -41 55 C-41.22346359 50.55288354 -41.38620917 46.10878018 -41.49438477 41.65771484 C-41.53949166 40.14606802 -41.60080227 38.63481066 -41.67895508 37.12451172 C-42.30296408 24.75037234 -42.30296408 24.75037234 -39.44433594 20.91015625 C-37.05136561 19.26837725 -34.6598554 18.16168178 -32 17 C-29.7654217 15.74858199 -27.53937072 14.48186181 -25.3203125 13.203125 C-22.9276031 11.87494885 -20.52581846 10.56344937 -18.125 9.25 C-16.28976243 8.24216317 -14.45516517 7.23318463 -12.62130737 6.22283936 C-10.97418309 5.3159336 -9.32527733 4.41226554 -7.67626953 3.50878906 C-1.45242718 0 -1.45242718 0 0 0 Z " fill="#291A3D" transform="translate(388,495)"/>
<path d="M0 0 C3.62011046 2.33296007 5.89022378 4.96794755 7.8125 8.8125 C8.62159157 15.20564974 7.74719697 20.60696923 3.8125 25.8125 C-0.03596107 28.61138078 -3.56168317 29.36045501 -8.23046875 29.1640625 C-12.54333557 28.38929601 -15.32655008 26.0055306 -17.828125 22.5390625 C-20.19098643 17.79975999 -19.81786348 12.98148051 -19.1875 7.8125 C-15.24221909 -0.51642637 -8.70327108 -3.24239511 0 0 Z " fill="#2C1C3E" transform="translate(351.1875,801.1875)"/>
<path d="M0 0 C4.82833956 1.86164845 7.73325285 4.3327743 10 9 C10.82885269 14.54808604 10.7240695 19.47140883 8.3125 24.5625 C4.65614291 28.41649802 1.94457168 30.15608111 -3.375 30.5625 C-7.96481453 30.40925077 -10.41646976 28.82648843 -13.625 25.6328125 C-17.07869593 21.53154858 -17.45103501 17.42331731 -17.3125 12.2109375 C-16.62310285 7.33345263 -13.80956793 4.68363514 -10.1875 1.625 C-6.33997539 -0.33648313 -4.27096387 -0.59943353 0 0 Z " fill="#2D1D3F" transform="translate(284,800)"/>
<path d="M0 0 C3.19556529 1.26491126 4.53559295 2.48755084 6.8125 5 C9.08590789 10.74334625 8.81039088 16.73090554 6.75 22.5 C4.23581413 26.0916941 2.13970343 27.62009886 -2 29 C-8.65983797 29.7769811 -8.65983797 29.7769811 -12.0078125 27.8359375 C-16.25208661 24.37303603 -18.59647521 21.44597361 -19.24609375 15.8984375 C-19.54891482 10.41095271 -18.68188433 7.29553172 -15 3 C-10.47157922 -1.1256762 -5.83463593 -0.63288027 0 0 Z " fill="#2C1C3E" transform="translate(607,801)"/>
<path d="M0 0 C3.01125 -0.061875 6.0225 -0.12375 9.125 -0.1875 C10.06230957 -0.21481201 10.99961914 -0.24212402 11.96533203 -0.27026367 C17.97209779 -0.3297556 22.25675252 0.53107727 26.875 4.6875 C28.53388477 8.0974298 28.53476711 11.32256043 28 15 C26.20698229 19.2466209 24.16801186 21.10935545 20 23 C16.55171888 23.36140319 13.14966201 23.28218922 9.6875 23.1875 C4.8921875 23.0946875 4.8921875 23.0946875 0 23 C0 15.41 0 7.82 0 0 Z " fill="#2B1B3D" transform="translate(200,786)"/>
<path d="M0 0 C0.33 0 0.66 0 1 0 C1 38.94 1 77.88 1 118 C-25.73 118 -52.46 118 -80 118 C-77.49147051 115.49147051 -75.98701988 114.27760996 -72.9375 112.75 C-72.24527344 112.39421875 -71.55304688 112.0384375 -70.83984375 111.671875 C-70.23269531 111.45015625 -69.62554687 111.2284375 -69 111 C-68.34 111.33 -67.68 111.66 -67 112 C-68.2065625 112.680625 -68.2065625 112.680625 -69.4375 113.375 C-72.08856572 114.74725665 -72.08856572 114.74725665 -73 117 C-48.91 117 -24.82 117 0 117 C0 78.39 0 39.78 0 0 Z " fill="#136BD3" transform="translate(346,589)"/>
<path d="M0 0 C0.66 0.33 1.32 0.66 2 1 C1.195625 1.45375 0.39125 1.9075 -0.4375 2.375 C-3.08856572 3.74725665 -3.08856572 3.74725665 -4 6 C20.42 6 44.84 6 70 6 C70 6.33 70 6.66 70 7 C43.27 7 16.54 7 -11 7 C-8.49147051 4.49147051 -6.98701988 3.27760996 -3.9375 1.75 C-3.24527344 1.39421875 -2.55304688 1.0384375 -1.83984375 0.671875 C-1.23269531 0.45015625 -0.62554687 0.2284375 0 0 Z " fill="#1347C0" transform="translate(277,700)"/>
<path d="M0 0 C0 4.2257063 -2.41771504 5.98077027 -5.1875 8.875 C-5.91163086 9.65037109 -5.91163086 9.65037109 -6.65039062 10.44140625 C-7.61600958 11.47053571 -8.58823921 12.49350435 -9.56713867 13.51000977 C-10.95731831 14.95561657 -12.32287233 16.42477965 -13.6875 17.89453125 C-14.450625 18.58933594 -15.21375 19.28414063 -16 20 C-18.8125 19.8125 -18.8125 19.8125 -21 19 C-14.43373014 12.21485448 -7.31324576 5.96606891 0 0 Z " fill="#49E9AF" transform="translate(603,332)"/>
<path d="M0 0 C-0.80824219 0.44730469 -1.61648438 0.89460938 -2.44921875 1.35546875 C-4.05216797 2.26232422 -4.05216797 2.26232422 -5.6875 3.1875 C-6.74324219 3.77917969 -7.79898437 4.37085938 -8.88671875 4.98046875 C-13.45646833 7.93461051 -13.45646833 7.93461051 -17 12 C-17.74234775 15.93598572 -17.79052346 19.81521245 -17.8125 23.8125 C-17.83763672 24.88693359 -17.86277344 25.96136719 -17.88867188 27.06835938 C-17.94743295 29.71260771 -17.98379376 32.35520488 -18 35 C-18.33 35 -18.66 35 -19 35 C-21.3758569 12.76197944 -21.3758569 12.76197944 -17.59228516 6.77099609 C-13.01744196 2.27844771 -6.47938877 -2.098743 0 0 Z " fill="#28C0C4" transform="translate(381,411)"/>
<path d="M0 0 C0.99 0.33 1.98 0.66 3 1 C1.33333333 2.66666667 -0.33333333 4.33333333 -2 6 C-2.886875 6.928125 -3.77375 7.85625 -4.6875 8.8125 C-7 11 -7 11 -9 11 C-9.33 11.66 -9.66 12.32 -10 13 C-10 10 -10 10 -7.8125 7.51953125 C-6.884375 6.62621094 -5.95625 5.73289062 -5 4.8125 C-4.071875 3.91144531 -3.14375 3.01039063 -2.1875 2.08203125 C-1.1046875 1.05142578 -1.1046875 1.05142578 0 0 Z " fill="#31D0A9" transform="translate(507,374)"/>
<path d="M0 0 C0 4.10746566 -1.63960436 5.19754861 -4.375 8.1875 C-5.18710937 9.08855469 -5.99921875 9.98960937 -6.8359375 10.91796875 C-9 13 -9 13 -11 13 C-10.53730015 8.70772058 -8.09840542 6.97077935 -4.9375 4.25 C-4.01839844 3.45078125 -3.09929688 2.6515625 -2.15234375 1.828125 C-1.44207031 1.22484375 -0.73179687 0.6215625 0 0 Z " fill="#57D9AA" transform="translate(603,332)"/>
<path d="M0 0 C0.66 0.33 1.32 0.66 2 1 C1.195625 1.45375 0.39125 1.9075 -0.4375 2.375 C-3.08856572 3.74725665 -3.08856572 3.74725665 -4 6 C-5.65 6 -7.3 6 -9 6 C-6.45368965 3.02930459 -3.57769851 1.5224249 0 0 Z " fill="#114AE2" transform="translate(277,700)"/>
</svg>
