<?xml version="1.0" encoding="UTF-8"?>
<svg version="1.1" xmlns="http://www.w3.org/2000/svg" width="1024" height="1024">
<path d="M0 0 C0.99 0.495 0.99 0.495 2 1 C2.87706906 5.5080299 3.13433972 9.91239907 3.17408752 14.49598694 C3.19349144 16.39059914 3.19349144 16.39059914 3.21328735 18.32348633 C3.22250459 19.70532125 3.23156304 21.08715724 3.24047852 22.46899414 C3.25330661 23.93810791 3.26644242 25.40721902 3.27986145 26.87632751 C3.39527682 40.22943104 3.45231217 53.58325222 3.49662876 66.9367609 C3.52992301 76.80043216 3.58963572 86.66319006 3.68413979 96.52646929 C3.74844287 103.47270662 3.78215985 110.41869452 3.79337829 117.3652181 C3.80093715 121.51068629 3.82210474 125.6550465 3.87640572 129.80018806 C3.9268612 133.69699558 3.93944503 137.59210858 3.92315483 141.48919106 C3.92375818 142.91709009 3.93801976 144.34506014 3.96710205 145.77266312 C4.17526856 156.55639438 4.17526856 156.55639438 1.24128532 160.16026402 C-0.77950802 161.70157745 -2.72385612 162.88095262 -5 164 C-6.18722656 164.76630737 -6.18722656 164.76630737 -7.3984375 165.5480957 C-8.05070313 165.92023193 -8.70296875 166.29236816 -9.375 166.67578125 C-10.12515381 167.10697266 -10.87530762 167.53816406 -11.64819336 167.98242188 C-12.42428955 168.42134766 -13.20038574 168.86027344 -14 169.3125 C-14.81799072 169.78107422 -15.63598145 170.24964844 -16.47875977 170.73242188 C-20.52458668 173.04499354 -24.5849389 175.33109921 -28.65234375 177.60546875 C-29.37615234 178.01047607 -30.09996094 178.4154834 -30.84570312 178.83276367 C-32.20317988 179.59024457 -33.56245767 180.34451022 -34.92382812 181.0949707 C-39.73617068 183.66539917 -39.73617068 183.66539917 -44 187 C-44.4482556 190.84251737 -44.4482556 190.84251737 -42.64453125 192.4921875 C-42.03996094 192.94851563 -41.43539062 193.40484375 -40.8125 193.875 C-38.37193955 195.82256724 -36.58444924 197.50079194 -34.5625 199.9375 C-31.37778905 203.74361797 -27.78766669 206.81114538 -24 210 C-22.76956173 211.04016431 -21.5403239 212.08175094 -20.3125 213.125 C-19.79300781 213.56070313 -19.27351562 213.99640625 -18.73828125 214.4453125 C-15.87172099 217.00911247 -13.20991099 219.77564054 -10.50756836 222.51025391 C-8.94384364 224.09146004 -7.37820126 225.67075126 -5.8125 227.25 C-5.27947266 227.79140625 -4.74644531 228.3328125 -4.19726562 228.890625 C-1.37492463 231.80757101 -1.37492463 231.80757101 2 234 C2.97085917 237.49654576 3.12552783 240.82867092 3.12698364 244.44236755 C3.12980347 245.52284866 3.13262329 246.60332977 3.13552856 247.71655273 C3.13249222 249.47999023 3.13249222 249.47999023 3.12939453 251.27905273 C3.13202301 253.14836205 3.13202301 253.14836205 3.13470459 255.05543518 C3.13834991 258.46921474 3.13749669 261.88293362 3.1343255 265.29670978 C3.13178629 268.88295238 3.13414425 272.46919247 3.13571167 276.05543518 C3.13753092 282.08701032 3.13513566 288.11857321 3.13037109 294.15014648 C3.12495115 301.09082925 3.12667554 308.03148254 3.1321975 314.97216457 C3.13676223 320.95205511 3.13736218 326.93193686 3.13475883 332.91182858 C3.13321157 336.47360246 3.13295876 340.03536258 3.13629532 343.59713554 C3.13976847 347.58357303 3.1349299 351.56996132 3.12939453 355.55639648 C3.13141876 356.71380341 3.13344299 357.87121033 3.13552856 359.06369019 C3.09278042 375.82836862 3.09278042 375.82836862 2 383 C-0.43300589 384.21650295 -2.03680548 384.1332218 -4.75 384.125 C-6.01070313 384.12886719 -6.01070313 384.12886719 -7.296875 384.1328125 C-10 384 -10 384 -12.68115234 383.49780273 C-16.41091597 382.93836563 -20.04495243 382.87425576 -23.8046875 382.90234375 C-24.8906572 382.90446617 -24.8906572 382.90446617 -25.99856567 382.90663147 C-28.29075407 382.91218925 -30.58284157 382.92473367 -32.875 382.9375 C-34.43749858 382.94252047 -35.99999871 382.94708241 -37.5625 382.95117188 C-41.37503835 382.96214481 -45.18750212 382.9793799 -49 383 C-50.89128241 379.79149241 -51.24788751 377.43953014 -51.24050903 373.73553467 C-51.24463303 372.13701157 -51.24463303 372.13701157 -51.24884033 370.50619507 C-51.24164978 369.34238312 -51.23445923 368.17857117 -51.22705078 366.97949219 C-51.22734283 365.74995819 -51.22763489 364.52042419 -51.22793579 363.25363159 C-51.22678153 359.88611095 -51.21675396 356.5188358 -51.20278788 353.1513586 C-51.19028185 349.63063722 -51.18911012 346.10991253 -51.18673706 342.58917236 C-51.18052191 335.92398902 -51.16411063 329.25887131 -51.14403808 322.59371686 C-51.12168016 315.00490228 -51.11068592 307.41608456 -51.10064721 299.82724524 C-51.07974443 284.21812548 -51.04456778 268.60907121 -51 253 C-51.62390625 252.7009375 -52.2478125 252.401875 -52.890625 252.09375 C-55.06982906 250.96379234 -56.43361528 249.87966166 -58 248 C-58 247.34 -58 246.68 -58 246 C-58.639375 245.731875 -59.27875 245.46375 -59.9375 245.1875 C-62 244 -62 244 -63 241 C-65.00016466 239.79117904 -65.00016466 239.79117904 -67 239 C-67 238.34 -67 237.68 -67 237 C-67.57234375 236.7525 -68.1446875 236.505 -68.734375 236.25 C-71.35010611 234.80683801 -73.14773456 233.11783778 -75.25 231 C-76.30960937 229.948125 -76.30960937 229.948125 -77.390625 228.875 C-79 227 -79 227 -79 225 C-79.57878906 224.74476563 -80.15757812 224.48953125 -80.75390625 224.2265625 C-83.96016185 222.47566814 -86.29896253 219.99703452 -88.90234375 217.4609375 C-91.54438685 215.62085534 -92.82545471 215.73533478 -96 216 C-99.52649495 217.24690559 -101.78260431 218.98620651 -104 222 C-105.17369743 227.03417714 -105.00208202 232.0062318 -104.89233398 237.13745117 C-104.88843781 238.69009425 -104.88808669 240.24274967 -104.89100647 241.7953949 C-104.88903389 246.0024979 -104.83792656 250.20773981 -104.77821994 254.41436553 C-104.72441087 258.81708784 -104.71684735 263.21988004 -104.7046051 267.62287903 C-104.6745936 275.95998117 -104.60465463 284.29623517 -104.51961046 292.63293868 C-104.40584537 303.96454085 -104.34733221 315.29639684 -104.28835309 326.62839377 C-104.27419737 329.34701544 -104.25985529 332.06563601 -104.24537659 334.78425598 C-104.2407228 335.66545288 -104.236069 336.54664978 -104.23127419 337.45454961 C-104.20229109 342.69903402 -104.16326864 347.94332778 -104.11504638 353.18767011 C-104.0853319 356.44476438 -104.05913558 359.70188259 -104.03323936 362.95900917 C-104.02016009 364.47196254 -104.00527044 365.98490148 -103.98846054 367.49781799 C-103.96563768 369.55897473 -103.94892114 371.62009631 -103.93357849 373.68132019 C-103.92226615 374.83590823 -103.91095381 375.99049627 -103.89929867 377.18007183 C-104 380 -104 380 -105 383 C-108.50725818 384.53236336 -112.1119506 383.88208489 -115.83984375 383.5703125 C-126.40991297 382.79222038 -136.96923 382.84883961 -147.5625 382.875 C-149.11698853 382.87632935 -149.11698853 382.87632935 -150.70288086 382.87768555 C-169.90325747 382.89681382 -189.08392048 383.283294 -208.2734375 383.90820312 C-212.18531327 384.00456484 -216.08715758 384.01518287 -220 384 C-221 382 -221 382 -220.38671875 380.015625 C-218.53175477 377.31939567 -216.87608774 376.85801824 -213.8125 375.75 C-209.07114232 373.90053424 -204.65075017 371.82130043 -200.1875 369.375 C-191.7217899 364.73761689 -183.00782598 360.64294801 -174.28515625 356.515625 C-172.52319539 355.67759217 -170.76146304 354.83907869 -169 354 C-168.19675293 353.62166016 -167.39350586 353.24332031 -166.56591797 352.85351562 C-162.60230792 351.19161442 -162.60230792 351.19161442 -160 348 C-159.90983147 346.6008721 -159.8816759 345.19749778 -159.88533211 343.79547215 C-159.88519116 342.90855767 -159.8850502 342.02164319 -159.88490498 341.10785252 C-159.88986418 340.12742369 -159.89482338 339.14699487 -159.89993286 338.13685608 C-159.90119513 337.10004163 -159.90245741 336.06322718 -159.90375793 334.9949941 C-159.90916364 331.49802002 -159.9216919 328.00110619 -159.93408203 324.50415039 C-159.93927178 322.00629264 -159.9439806 319.50843385 -159.94824219 317.01057434 C-159.95820337 311.62052999 -159.97100897 306.23050323 -159.98596573 300.84047127 C-160.00930439 292.32484358 -160.02232976 283.80921476 -160.03366089 275.29356384 C-160.03766253 272.38187115 -160.04173119 269.47017856 -160.04582024 266.55848598 C-160.04683946 265.83079619 -160.04785869 265.10310639 -160.04890881 264.35336538 C-160.06065608 256.06670999 -160.07453396 247.78005863 -160.08935547 239.4934082 C-160.0907079 238.73570999 -160.09206033 237.97801177 -160.09345375 237.197353 C-160.11564391 224.91309024 -160.14551218 212.62885479 -160.17732288 200.34461374 C-160.20968091 187.7415151 -160.23057059 175.13843077 -160.24159515 162.53529543 C-160.24883019 154.75640229 -160.26556963 146.97764405 -160.29439591 139.19880044 C-160.31559117 133.24209771 -160.32124519 127.28544554 -160.32102966 121.32870293 C-160.32346064 118.88047587 -160.33107999 116.43224789 -160.34415817 113.98405457 C-160.3612182 110.65258688 -160.35999465 107.32162163 -160.35403442 103.99012756 C-160.36345507 103.01192946 -160.37287571 102.03373136 -160.38258183 101.02589089 C-160.37722538 100.13636866 -160.37186894 99.24684644 -160.36635017 98.330369 C-160.36803141 97.56100059 -160.36971264 96.79163219 -160.37144482 95.99894959 C-159.73513628 92.57462216 -157.43038579 91.30025225 -154.6875 89.38671875 C-148.25515222 85.31975468 -141.71221812 81.58253321 -135 78 C-127.875169 74.10222389 -120.83287736 70.05929711 -113.78662109 66.02197266 C-112.13671811 65.0782047 -110.48447799 64.13852571 -108.83203125 63.19921875 C-99.99554191 58.17286001 -91.21418816 53.05410461 -82.43798828 47.92333984 C-74.00880573 42.99658772 -74.00880573 42.99658772 -70.28125 40.875 C-66.47861505 38.70206575 -62.70796526 36.47810102 -58.9375 34.25 C-53.79022585 31.21495389 -48.63203313 28.20375414 -43.4375 25.25 C-34.89519911 20.38989602 -26.41566099 15.42243509 -17.9296875 10.46484375 C-16.48287598 9.62348877 -16.48287598 9.62348877 -15.00683594 8.76513672 C-12.88085134 7.51709607 -10.7652352 6.25131337 -8.65722656 4.97314453 C-7.57666992 4.3232959 -6.49611328 3.67344727 -5.3828125 3.00390625 C-3.90772217 2.1058728 -3.90772217 2.1058728 -2.40283203 1.18969727 C-1.60989746 0.79709717 -0.81696289 0.40449707 0 0 Z M-52 91 C-59.52972867 93.97455397 -66.40074144 98.42162294 -73.2265625 102.71875 C-78.65912139 106.06738289 -84.30753136 109.04751653 -89.93359375 112.05541992 C-98.64933947 116.26272049 -98.64933947 116.26272049 -105 123 C-105.09894636 125.65213595 -105.13983438 128.27740909 -105.1328125 130.9296875 C-105.13376923 131.71642853 -105.13472595 132.50316956 -105.13571167 133.31375122 C-105.13639274 134.97983887 -105.13454352 136.64592916 -105.13037109 138.31201172 C-105.12503603 140.85780846 -105.13031114 143.40342762 -105.13671875 145.94921875 C-105.13605768 147.56770872 -105.13477591 149.18619858 -105.1328125 150.8046875 C-105.13483673 151.5652243 -105.13686096 152.32576111 -105.13894653 153.10934448 C-105.12379295 156.54175251 -105.0840139 159.71996987 -104 163 C-99.98794363 161.52216711 -96.44469279 159.61004823 -92.765625 157.4375 C-92.17431793 157.0897049 -91.58301086 156.74190979 -90.9737854 156.38357544 C-89.06382827 155.25911705 -87.15683092 154.12975024 -85.25 153 C-83.93912533 152.22612782 -82.62808955 151.45252849 -81.31689453 150.67919922 C-79.36263665 149.52638465 -77.40860543 148.37319895 -75.45547485 147.21847534 C-71.78434384 145.04852399 -68.10520862 142.89363071 -64.4140625 140.7578125 C-63.2379541 140.07525391 -63.2379541 140.07525391 -62.03808594 139.37890625 C-60.63964042 138.5682498 -59.23936612 137.7607364 -57.83691406 136.95703125 C-53.48394935 134.48518254 -53.48394935 134.48518254 -50 131 C-49.47677121 128.18342468 -49.47677121 128.18342468 -49.453125 124.96875 C-49.39318359 123.16277344 -49.39318359 123.16277344 -49.33203125 121.3203125 C-49.29142578 119.42925781 -49.29142578 119.42925781 -49.25 117.5 C-49.20746094 116.27023437 -49.16492188 115.04046875 -49.12109375 113.7734375 C-48.70894528 102.83232412 -48.70894528 102.83232412 -50 92 C-50.66 91.67 -51.32 91.34 -52 91 Z " fill="#1993D9" transform="translate(493,364)"/>
<path d="M0 0 C4.12557746 1.51425689 7.84475377 3.53597519 11.625 5.75 C12.87186758 6.47226687 14.11926967 7.19361175 15.3671875 7.9140625 C15.98174805 8.26887695 16.59630859 8.62369141 17.22949219 8.98925781 C19.71484267 10.40808724 22.23032803 11.76825356 24.75 13.125 C29.1835656 15.52134547 33.49431228 18.08288674 37.80078125 20.69921875 C39.49512767 21.70138102 41.23928673 22.61964336 43 23.5 C45.66036816 24.83018408 48.14762561 26.2694366 50.6875 27.8125 C54.2451567 29.97269635 57.83603962 32.02550367 61.5 34 C65.0562298 35.91796663 68.54698697 37.90196677 72 40 C78.42740339 43.89478447 85.03566041 47.43636066 91.6796875 50.9453125 C98.094039 54.3370885 104.42049165 57.78298663 110.61328125 61.5703125 C114.99367401 64.19424663 119.50523766 66.57925843 124 69 C126.75655939 70.50144512 129.51130106 72.00617728 132.265625 73.51171875 C134.04328821 74.47927544 135.82437749 75.440573 137.609375 76.39453125 C143.17395703 79.38261302 148.63841908 82.51561667 154.0625 85.75 C154.71831055 86.13905518 155.37412109 86.52811035 156.04980469 86.92895508 C158.61120988 88.46815119 160.87842261 89.87842261 163 92 C163.21261687 94.91037628 163.30095959 97.72799531 163.30297852 100.640625 C163.31141785 101.53503296 163.31985718 102.42944092 163.32855225 103.35095215 C163.35441276 106.31730659 163.36648929 109.28356144 163.37890625 112.25 C163.39507181 114.30502114 163.41225079 116.36003453 163.43040466 118.41503906 C163.47617413 123.83280872 163.51093657 129.25058856 163.54260254 134.66845703 C163.59440191 143.34151552 163.65950147 152.01446025 163.73081779 160.68737793 C163.75371169 163.72419226 163.76994446 166.76099206 163.78553772 169.79785156 C163.79894131 171.65169433 163.81255585 173.50553559 163.82641602 175.359375 C163.83033607 176.63427795 163.83033607 176.63427795 163.83433533 177.93493652 C163.76194887 182.10087505 163.76194887 182.10087505 165 186 C167.17249185 187.14198948 169.327292 188.18250762 171.5625 189.1875 C172.23289307 189.49502197 172.90328613 189.80254395 173.59399414 190.11938477 C177.69611728 191.99100526 181.82426776 193.79859389 185.96386719 195.58544922 C198.65365813 201.06384734 210.93576047 207.25220501 223 214 C222.67 215.65 222.34 217.3 222 219 C213.94126023 219.02326234 205.88253471 219.04098548 197.82376957 219.05181217 C194.08098723 219.05701078 190.33822802 219.06405297 186.59545898 219.07543945 C182.97742424 219.08637646 179.35941163 219.09229955 175.74136162 219.09487724 C174.36720876 219.09671213 172.99305699 219.10029485 171.61891365 219.10573006 C164.31738489 219.13343792 157.24183411 218.93135463 150 218 C147.19000694 218.10813889 147.19000694 218.10813889 144.75 218.5 C142.1380091 218.87558039 140.24003003 219.05103629 137.6484375 218.5 C134.2680352 217.86181196 131.2975945 218.18560719 127.875 218.5 C122.19724506 218.97430877 116.82453528 218.90993804 111.171875 218.15625 C108.81860349 217.84741704 108.81860349 217.84741704 106 219 C103.03199174 219.09874 100.09255837 219.13895404 97.125 219.125 C95.949375 219.13080078 95.949375 219.13080078 94.75 219.13671875 C90.22192821 219.12943889 85.76788018 218.91064005 81.25854492 218.49780273 C73.01511342 217.84904233 64.80558553 217.87429094 56.54296875 217.90234375 C54.902451 217.90421385 53.26193269 217.90563495 51.62141418 217.90663147 C47.34885049 217.91041008 43.07632197 217.92019935 38.80377197 217.93133545 C34.42582678 217.94165092 30.04787578 217.94615058 25.66992188 217.95117188 C17.11326529 217.96182684 8.55663705 217.97884573 0 218 C-1.17786003 214.30539252 -1.08089396 210.85167374 -1.03173828 206.99414062 C-0.98414358 200.84190996 -1.04717727 194.7028696 -1.21435547 188.55273438 C-1.23630163 187.72535515 -1.2582478 186.89797592 -1.28085899 186.0455246 C-1.32714813 184.30494588 -1.3736723 182.56437339 -1.42041397 180.82380676 C-2.06108551 156.45452045 -2.15995425 132.09432302 -2.12877274 107.71785736 C-2.12493979 104.44864362 -2.12291622 101.17943283 -2.12130737 97.91021729 C-2.10657768 72.56301213 -2.05183201 47.21814317 -1.5625 21.875 C-1.5429425 20.8130542 -1.52338501 19.7511084 -1.50323486 18.65698242 C-1.44781633 15.78934404 -1.38454524 12.92204872 -1.31640625 10.0546875 C-1.29968369 9.24526703 -1.28296112 8.43584656 -1.26573181 7.60189819 C-1.11758094 2.23516188 -1.11758094 2.23516188 0 0 Z " fill="#1FA3D3" transform="translate(513,529)"/>
<path d="M0 0 C3.28707583 1.35289663 5.71874673 3.25075971 8.49609375 5.46484375 C12.07527217 8.30901232 15.14546567 10.56380526 19.49609375 12.02734375 C19.49609375 12.68734375 19.49609375 13.34734375 19.49609375 14.02734375 C20.21410156 14.28386719 20.93210937 14.54039062 21.671875 14.8046875 C24.66749376 16.10154597 27.04368357 17.67680748 29.68359375 19.58984375 C32.97487698 21.99935014 32.97487698 21.99935014 36.49609375 24.02734375 C36.49609375 24.68734375 36.49609375 25.34734375 36.49609375 26.02734375 C37.22183594 26.28644531 37.94757813 26.54554688 38.6953125 26.8125 C41.60775177 28.07577561 43.78137635 29.55052632 46.30859375 31.46484375 C50.96797347 34.92951072 55.69884557 38.25644133 60.49609375 41.52734375 C66.0817172 45.34245965 71.58617013 49.24489244 77.03515625 53.25390625 C80.12852642 55.48309682 83.30983229 57.56146504 86.5 59.6484375 C88.35917964 60.93276316 90.04518538 62.29283594 91.74609375 63.77734375 C94.31827292 65.88185398 96.35995472 67.01271054 99.49609375 68.02734375 C99.49609375 68.68734375 99.49609375 69.34734375 99.49609375 70.02734375 C100.25921875 70.29546875 101.02234375 70.56359375 101.80859375 70.83984375 C104.50046691 72.02927607 105.46691445 72.99816445 107.49609375 75.02734375 C109.1122588 75.93643659 110.72932301 76.84397911 112.3515625 77.7421875 C118.87909903 81.65395347 124.85966962 86.47502513 130.74609375 91.27734375 C133.90584153 93.83688827 136.98924943 95.99097154 140.58984375 97.91015625 C145.13029998 100.57116134 149.28329877 103.88313288 153.49609375 107.02734375 C154.48817369 107.61529787 154.48817369 107.61529787 155.50029564 108.21512985 C161.04723051 111.73694116 161.04723051 111.73694116 162.22824478 115.13214874 C162.49476587 117.67719935 162.50953681 120.11476864 162.43603516 122.67285156 C162.44041595 123.62636505 162.44479675 124.57987854 162.4493103 125.56228638 C162.45392094 128.70310855 162.40151507 131.84014923 162.34765625 134.98046875 C162.33780692 137.16427419 162.33121015 139.34809651 162.32772827 141.53192139 C162.31246292 146.1019101 162.27138409 150.67064259 162.20947266 155.24023438 C162.13013552 161.10730755 162.09422484 166.97356549 162.0748539 172.84111404 C162.05494422 178.42934337 162.01515111 184.01737228 161.97265625 189.60546875 C161.96586475 190.67618874 161.95907326 191.74690872 161.95207596 192.85007477 C161.92900531 195.86676629 161.89198209 198.8829323 161.85009766 201.89941406 C161.84471985 202.79916962 161.83934204 203.69892517 161.83380127 204.62594604 C161.72591967 210.79751783 161.72591967 210.79751783 159.49609375 213.02734375 C151.17031483 208.92784854 142.95909218 204.74879602 135.02734375 199.92578125 C133.74620053 199.14695974 132.46494755 198.36831875 131.18359375 197.58984375 C130.53849854 197.19780762 129.89340332 196.80577148 129.22875977 196.40185547 C124.33756579 193.45990377 119.32173055 190.9050456 114.18359375 188.41796875 C111.67708571 187.12099657 109.43191048 185.7040172 107.12109375 184.08984375 C101.29735463 180.03152647 94.87707816 177.09529927 88.49609375 174.02734375 C88.49609375 173.36734375 88.49609375 172.70734375 88.49609375 172.02734375 C87.77808594 171.929375 87.06007813 171.83140625 86.3203125 171.73046875 C83.09277566 170.92693261 81.05403397 169.64278319 78.30859375 167.77734375 C74.02115305 164.95726243 69.7320953 162.57242996 65.11328125 160.3515625 C61.04462833 158.29294558 57.16268042 155.92938726 53.2578125 153.578125 C50.71673818 152.15124168 48.2256276 151.03662494 45.49609375 150.02734375 C45.49609375 149.36734375 45.49609375 148.70734375 45.49609375 148.02734375 C41.87412181 146.53594354 38.22042757 145.23991755 34.49609375 144.02734375 C34.49609375 143.36734375 34.49609375 142.70734375 34.49609375 142.02734375 C33.62984375 141.77984375 32.76359375 141.53234375 31.87109375 141.27734375 C28.95852885 140.19861601 26.88702039 138.99540709 24.37890625 137.22265625 C21.92359505 135.66389022 19.35899349 134.42872188 16.74609375 133.15234375 C10.05141257 129.86753131 3.69910616 126.16268535 -2.50390625 122.02734375 C-2.85794067 119.91796875 -2.85794067 119.91796875 -2.82861328 117.27734375 C-2.825159 116.28871338 -2.82170471 115.30008301 -2.81814575 114.28149414 C-2.79952484 113.20762451 -2.78090393 112.13375488 -2.76171875 111.02734375 C-2.75179398 109.36916626 -2.75179398 109.36916626 -2.7416687 107.67749023 C-2.71819614 104.12716321 -2.67453743 100.57744946 -2.62890625 97.02734375 C-2.59370602 93.50587405 -2.56283687 89.98444565 -2.53756714 86.46289062 C-2.52076348 84.2701225 -2.49776936 82.07739003 -2.46755981 79.88476562 C-2.40637253 73.52785478 -2.72020432 67.33714346 -3.50390625 61.02734375 C-4.0983252 61.33414063 -4.69274414 61.6409375 -5.30517578 61.95703125 C-11.25390625 65.02734375 -11.25390625 65.02734375 -13.50390625 65.02734375 C-13.50390625 65.68734375 -13.50390625 66.34734375 -13.50390625 67.02734375 C-14.76654297 67.63642578 -14.76654297 67.63642578 -16.0546875 68.2578125 C-19.71057815 70.13337135 -23.18894306 72.19713374 -26.69140625 74.33984375 C-31.04074326 76.97646376 -35.39475636 79.56139435 -39.87890625 81.96484375 C-46.18937496 85.34748238 -52.32909427 89.01211121 -58.48828125 92.66015625 C-63.90694 95.8635756 -69.38318386 98.96110821 -74.8671875 102.05078125 C-75.83720703 102.59734375 -76.80722656 103.14390625 -77.80664062 103.70703125 C-79.80091439 104.83034704 -81.79570009 105.95275447 -83.79101562 107.07421875 C-94.22587953 112.25785924 -94.22587953 112.25785924 -103.50390625 119.02734375 C-105.50348989 119.06815158 -107.50435879 119.06988731 -109.50390625 119.02734375 C-109.55351984 113.17408469 -109.5897269 107.32094936 -109.61376953 101.4675293 C-109.62379761 99.47824978 -109.63742342 97.48898489 -109.65478516 95.49975586 C-109.67917416 92.6326129 -109.69042151 89.76566565 -109.69921875 86.8984375 C-109.70954132 86.01586777 -109.71986389 85.13329803 -109.73049927 84.22398376 C-109.73264899 72.26529617 -109.73264899 72.26529617 -105.61328125 68.12890625 C-104.8346875 67.64164062 -104.05609375 67.154375 -103.25390625 66.65234375 C-102.36703125 66.08128906 -101.48015625 65.51023437 -100.56640625 64.921875 C-99.55578125 64.29667969 -98.54515625 63.67148437 -97.50390625 63.02734375 C-96.31468771 62.26308419 -95.12726054 61.4960318 -93.94140625 60.7265625 C-91.56757637 59.18764429 -89.18793392 57.65878836 -86.80078125 56.140625 C-84.57002989 54.71072395 -82.38615978 53.2600905 -80.20703125 51.7578125 C-77.50390625 50.02734375 -77.50390625 50.02734375 -75.50390625 50.02734375 C-75.50390625 49.36734375 -75.50390625 48.70734375 -75.50390625 48.02734375 C-74.59640625 47.53234375 -73.68890625 47.03734375 -72.75390625 46.52734375 C-68.11557227 43.89579917 -63.76124595 40.85382432 -59.37109375 37.83203125 C-56.78528965 36.20445428 -54.37381808 35.04705601 -51.50390625 34.02734375 C-51.50390625 33.36734375 -51.50390625 32.70734375 -51.50390625 32.02734375 C-50.59640625 31.53234375 -49.68890625 31.03734375 -48.75390625 30.52734375 C-44.11557227 27.89579917 -39.76124595 24.85382432 -35.37109375 21.83203125 C-32.78528965 20.20445428 -30.37381808 19.04705601 -27.50390625 18.02734375 C-27.50390625 17.36734375 -27.50390625 16.70734375 -27.50390625 16.02734375 C-25.3359375 14.6171875 -25.3359375 14.6171875 -22.31640625 12.96484375 C-18.73623763 10.95842224 -15.30758731 8.94487026 -11.98828125 6.53125 C-11.4161792 6.11560791 -10.84407715 5.69996582 -10.25463867 5.27172852 C-8.63288769 4.07634677 -7.02318619 2.8646699 -5.4140625 1.65234375 C-2.50390625 0.02734375 -2.50390625 0.02734375 0 0 Z " fill="#31D8AF" transform="translate(514.50390625,275.97265625)"/>
<path d="M0 0 C3.98357876 1.47267237 7.5208821 3.36223472 11.1875 5.5 C16.54921201 8.60640002 21.94636918 11.63724785 27.375 14.625 C34.75596508 18.69750672 42.0414336 22.92229583 49.3125 27.1875 C56.45348083 31.37502986 63.60126588 35.48963907 70.921875 39.35546875 C76.11316226 42.12898643 81.22424864 45.04499967 86.34765625 47.94140625 C89.11510082 49.50543068 91.89620215 51.04137072 94.6875 52.5625 C98.31207616 54.56084047 101.80524215 56.74028173 105.3125 58.9375 C110.46916435 62.1408824 115.70699682 64.9205562 121.1640625 67.5703125 C124.73914019 69.37262439 128.12118183 71.42210214 131.53125 73.515625 C134.00649987 75.00390815 136.51721968 76.38536176 139.0625 77.75 C144.13585596 80.49472208 149.13931753 83.34995745 154.125 86.25 C154.88433838 86.68666992 155.64367676 87.12333984 156.42602539 87.57324219 C157.48744751 88.19440918 157.48744751 88.19440918 158.5703125 88.828125 C159.52574951 89.3835498 159.52574951 89.3835498 160.50048828 89.95019531 C162 91 162 91 163 93 C163.09334432 95.86831552 163.12574811 98.71218264 163.11352539 101.58056641 C163.11367142 102.46843338 163.11381744 103.35630035 163.1139679 104.27107239 C163.11326955 107.21459369 163.10548081 110.15805221 163.09765625 113.1015625 C163.09579179 115.13894618 163.09436802 117.17633031 163.09336853 119.2137146 C163.08954555 124.58297966 163.07971711 129.95221777 163.06866455 135.32147217 C163.05844574 140.7976444 163.0538699 146.27382098 163.04882812 151.75 C163.03809467 162.50001185 163.02102085 173.25000369 163 184 C162.34 184.33 161.68 184.66 161 185 C158.71547765 184.03462441 156.56887558 183.01770889 154.375 181.875 C153.73908936 181.55023682 153.10317871 181.22547363 152.44799805 180.89086914 C148.50093111 178.85108943 144.70270824 176.6707702 140.98046875 174.2421875 C137.67917793 172.17155538 134.22359605 170.38450339 130.79296875 168.5390625 C128.12832046 167.07071085 125.53193478 165.52592946 122.9375 163.9375 C118.86700135 161.46428563 114.70899007 159.30528141 110.43359375 157.2109375 C104.89752399 154.45623184 99.57737108 151.36293866 94.3125 148.125 C88.0814397 144.34502029 81.54667852 141.18843997 75 138 C75 137.34 75 136.68 75 136 C74.12190674 135.80772827 74.12190674 135.80772827 73.22607422 135.61157227 C71.06821218 135.01874002 69.35218334 134.26434924 67.3828125 133.21484375 C66.35909546 132.67210815 66.35909546 132.67210815 65.31469727 132.1184082 C64.59209717 131.7287085 63.86949707 131.33900879 63.125 130.9375 C62.373396 130.5355542 61.62179199 130.1336084 60.84741211 129.71948242 C52.05926564 124.99554053 43.38562801 120.08420792 34.875 114.875 C30.3668727 112.14056213 25.69884439 109.83083767 20.96484375 107.515625 C17.27156908 105.62762688 13.76270049 103.50545615 10.25390625 101.296875 C7.9015408 99.94334757 5.53925405 98.94942127 3 98 C3 97.34 3 96.68 3 96 C2.35529755 95.74646255 1.71059509 95.49292511 1.0463562 95.23170471 C0.37105865 94.82524216 -0.30423889 94.4187796 -1 94 C-2.55226203 86.24124461 -2.14615172 78.20341343 -2.1328125 70.31640625 C-2.13348837 68.89265425 -2.13446074 67.46890237 -2.13571167 66.04515076 C-2.13717963 63.06728004 -2.13506612 60.08943946 -2.13037109 57.11157227 C-2.12472052 53.3498066 -2.12802428 49.58811237 -2.13380814 45.82634926 C-2.16851324 19.32209014 -2.16851324 19.32209014 -1.5546875 7.96484375 C-1.51594513 7.24333633 -1.47720276 6.52182892 -1.43728638 5.77845764 C-1.13481066 1.13481066 -1.13481066 1.13481066 0 0 Z " fill="#2AC2BE" transform="translate(513,416)"/>
<path d="M0 0 C0 0.66 0 1.32 0 2 C-0.66 2 -1.32 2 -2 2 C-2.3403125 3.051875 -2.3403125 3.051875 -2.6875 4.125 C-4.27238244 7.59664726 -6.49129773 10.17765602 -9 13 C-12.99831856 17.60549779 -16.85719029 22.28001851 -20.5625 27.125 C-20.97951172 27.66898438 -21.39652344 28.21296875 -21.82617188 28.7734375 C-23.62887494 31.1411669 -25.34846723 33.52270085 -27 36 C-27.66 36 -28.32 36 -29 36 C-29.22816406 36.52722656 -29.45632813 37.05445313 -29.69140625 37.59765625 C-31.44112742 40.80983094 -33.66554606 43.58653632 -35.9375 46.4375 C-36.42186523 47.05004639 -36.90623047 47.66259277 -37.40527344 48.29370117 C-41.22405478 53.09429637 -45.16327511 57.7847123 -49.14746094 62.44824219 C-52.32388459 66.17350794 -55.37124842 69.9726652 -58.3515625 73.85546875 C-65.45382852 83.09514659 -72.94830686 92.02768241 -80.36376953 101.015625 C-86.63943671 108.62658036 -92.85595255 116.28227282 -99 124 C-104.44876963 123.31796694 -106.29573983 122.08418429 -110 118 C-110.845625 117.34 -111.69125 116.68 -112.5625 116 C-115 114 -115 114 -116.875 111.625 C-119.1198721 108.8519227 -121.53176246 106.75445804 -124.26171875 104.48046875 C-126.64458987 102.45101222 -128.81841949 100.24217997 -131 98 C-131.598125 97.443125 -132.19625 96.88625 -132.8125 96.3125 C-134 95 -134 95 -134 93 C-134.57878906 92.73832031 -135.15757812 92.47664063 -135.75390625 92.20703125 C-141.60386451 89.06331455 -146.39979088 83.73550939 -151 79 C-151.66 78.34 -152.32 77.68 -153 77 C-152.71128014 73.04986065 -151.54846769 71.03821076 -148.796875 68.265625 C-148.14589844 67.60949219 -147.49492188 66.95335937 -146.82421875 66.27734375 C-146.13972656 65.60832031 -145.45523438 64.93929687 -144.75 64.25 C-143.74646484 63.22326172 -143.74646484 63.22326172 -142.72265625 62.17578125 C-142.06652344 61.52480469 -141.41039062 60.87382812 -140.734375 60.203125 C-140.13850586 59.61176758 -139.54263672 59.02041016 -138.92871094 58.41113281 C-136.60995836 56.71462776 -134.84334971 56.27607044 -132 56 C-130.3671875 57.1171875 -130.3671875 57.1171875 -128.875 58.875 C-125.133531 62.97748794 -120.99204803 66.341555 -116.6484375 69.7890625 C-113.93182363 72.05691419 -111.46760694 74.46558814 -109 77 C-108.236875 77.763125 -107.47375 78.52625 -106.6875 79.3125 C-106.130625 79.869375 -105.57375 80.42625 -105 81 C-99.59971765 79.62345744 -96.46324548 77.20364199 -92.4375 73.5625 C-91.20480988 72.47742955 -89.97172767 71.39280441 -88.73828125 70.30859375 C-88.11775879 69.75800293 -87.49723633 69.20741211 -86.85791016 68.64013672 C-83.97827828 66.09803856 -81.05613252 63.60737971 -78.125 61.125 C-77.58609131 60.66730225 -77.04718262 60.20960449 -76.49194336 59.73803711 C-73.02415987 56.81110551 -69.49067517 54.02752114 -65.78125 51.4140625 C-63.32746381 49.46610066 -61.21276182 47.21610942 -59 45 C-57.41661391 43.64205414 -55.81134061 42.3093014 -54.1875 41 C-52.75664063 39.83984375 -52.75664063 39.83984375 -51.296875 38.65625 C-49.56282835 37.25789426 -47.82746082 35.86119161 -46.09179688 34.46484375 C-38.60760053 28.43973903 -31.16810219 22.43087255 -24.11328125 15.90234375 C-17.55646817 10 -17.55646817 10 -15 10 C-14.67 9.01 -14.34 8.02 -14 7 C-12.109375 5.17578125 -12.109375 5.17578125 -9.75 3.3125 C-8.98171875 2.68988281 -8.2134375 2.06726563 -7.421875 1.42578125 C-4.68332724 -0.18642832 -3.12222769 -0.29340083 0 0 Z " fill="#38E0AE" transform="translate(747,224)"/>
<path d="M0 0 C4.12557746 1.51425689 7.84475377 3.53597519 11.625 5.75 C12.87186758 6.47226687 14.11926967 7.19361175 15.3671875 7.9140625 C15.98174805 8.26887695 16.59630859 8.62369141 17.22949219 8.98925781 C19.71484267 10.40808724 22.23032803 11.76825356 24.75 13.125 C29.1835656 15.52134547 33.49431228 18.08288674 37.80078125 20.69921875 C39.49512767 21.70138102 41.23928673 22.61964336 43 23.5 C45.66036816 24.83018408 48.14762561 26.2694366 50.6875 27.8125 C54.2451567 29.97269635 57.83603962 32.02550367 61.5 34 C65.0562298 35.91796663 68.54698697 37.90196677 72 40 C78.42740339 43.89478447 85.03566041 47.43636066 91.6796875 50.9453125 C98.094039 54.3370885 104.42049165 57.78298663 110.61328125 61.5703125 C114.99367401 64.19424663 119.50523766 66.57925843 124 69 C126.75655939 70.50144512 129.51130106 72.00617728 132.265625 73.51171875 C134.04328821 74.47927544 135.82437749 75.440573 137.609375 76.39453125 C143.17395703 79.38261302 148.63841908 82.51561667 154.0625 85.75 C154.71831055 86.13905518 155.37412109 86.52811035 156.04980469 86.92895508 C158.61120988 88.46815119 160.87842261 89.87842261 163 92 C163.21261687 94.91037628 163.30095959 97.72799531 163.30297852 100.640625 C163.31141785 101.53503296 163.31985718 102.42944092 163.32855225 103.35095215 C163.35441276 106.31730659 163.36648929 109.28356144 163.37890625 112.25 C163.39507181 114.30502114 163.41225079 116.36003453 163.43040466 118.41503906 C163.47617413 123.83280872 163.51093657 129.25058856 163.54260254 134.66845703 C163.59440191 143.34151552 163.65950147 152.01446025 163.73081779 160.68737793 C163.75371169 163.72419226 163.76994446 166.76099206 163.78553772 169.79785156 C163.79894131 171.65169433 163.81255585 173.50553559 163.82641602 175.359375 C163.83033607 176.63427795 163.83033607 176.63427795 163.83433533 177.93493652 C163.76194887 182.10087505 163.76194887 182.10087505 165 186 C167.17249185 187.14198948 169.327292 188.18250762 171.5625 189.1875 C172.23289307 189.49502197 172.90328613 189.80254395 173.59399414 190.11938477 C177.69611728 191.99100526 181.82426776 193.79859389 185.96386719 195.58544922 C198.65365813 201.06384734 210.93576047 207.25220501 223 214 C222.67 215.65 222.34 217.3 222 219 C213.94126023 219.02326234 205.88253471 219.04098548 197.82376957 219.05181217 C194.08098723 219.05701078 190.33822802 219.06405297 186.59545898 219.07543945 C182.97742424 219.08637646 179.35941163 219.09229955 175.74136162 219.09487724 C174.36720876 219.09671213 172.99305699 219.10029485 171.61891365 219.10573006 C164.31738489 219.13343792 157.24183411 218.93135463 150 218 C147.19000694 218.10813889 147.19000694 218.10813889 144.75 218.5 C142.1380091 218.87558039 140.24003003 219.05103629 137.6484375 218.5 C134.2680352 217.86181196 131.2975945 218.18560719 127.875 218.5 C122.19724506 218.97430877 116.82453528 218.90993804 111.171875 218.15625 C108.81860349 217.84741704 108.81860349 217.84741704 106 219 C103.03199174 219.09874 100.09255837 219.13895404 97.125 219.125 C95.949375 219.13080078 95.949375 219.13080078 94.75 219.13671875 C90.22192821 219.12943889 85.76788018 218.91064005 81.25854492 218.49780273 C73.01511342 217.84904233 64.80558553 217.87429094 56.54296875 217.90234375 C54.902451 217.90421385 53.26193269 217.90563495 51.62141418 217.90663147 C47.34885049 217.91041008 43.07632197 217.92019935 38.80377197 217.93133545 C34.42582678 217.94165092 30.04787578 217.94615058 25.66992188 217.95117188 C17.11326529 217.96182684 8.55663705 217.97884573 0 218 C-1.17786003 214.30539252 -1.08089396 210.85167374 -1.03173828 206.99414062 C-0.98414358 200.84190996 -1.04717727 194.7028696 -1.21435547 188.55273438 C-1.23630163 187.72535515 -1.2582478 186.89797592 -1.28085899 186.0455246 C-1.32714813 184.30494588 -1.3736723 182.56437339 -1.42041397 180.82380676 C-2.06108551 156.45452045 -2.15995425 132.09432302 -2.12877274 107.71785736 C-2.12493979 104.44864362 -2.12291622 101.17943283 -2.12130737 97.91021729 C-2.10657768 72.56301213 -2.05183201 47.21814317 -1.5625 21.875 C-1.5429425 20.8130542 -1.52338501 19.7511084 -1.50323486 18.65698242 C-1.44781633 15.78934404 -1.38454524 12.92204872 -1.31640625 10.0546875 C-1.29968369 9.24526703 -1.28296112 8.43584656 -1.26573181 7.60189819 C-1.11758094 2.23516188 -1.11758094 2.23516188 0 0 Z M1 3 C1 73.29 1 143.58 1 216 C73.27 216 145.54 216 220 216 C220 215.34 220 214.68 220 214 C205.52834411 206.95735782 191.0398177 199.95590258 176.4375 193.1875 C174.799021 192.42421387 174.799021 192.42421387 173.12744141 191.64550781 C172.11472168 191.17854492 171.10200195 190.71158203 170.05859375 190.23046875 C168.73299438 189.61788208 168.73299438 189.61788208 167.38061523 188.99291992 C164.78283197 187.83973747 164.78283197 187.83973747 161 187 C161 155.65 161 124.3 161 92 C155.06 88.7 149.12 85.4 143 82 C139.26768507 79.90102994 135.53755125 77.79920229 131.8125 75.6875 C130.85311523 75.14464355 129.89373047 74.60178711 128.90527344 74.04248047 C124.99175084 71.82796515 121.07914266 69.61184282 117.16748047 67.39404297 C106.07749399 61.10642535 94.96556402 54.86263824 83.8125 48.6875 C69.79844681 40.92371856 55.89479663 32.97467654 42 25 C27.1610246 16.45216009 27.1610246 16.45216009 12.16796875 8.1796875 C10.06502345 7.03538213 8.00091895 5.83877585 5.9375 4.625 C3.26782403 2.8386462 3.26782403 2.8386462 1 3 Z " fill="#292347" transform="translate(513,529)"/>
<path d="M0 0 C3.28707583 1.35289663 5.71874673 3.25075971 8.49609375 5.46484375 C12.07527217 8.30901232 15.14546567 10.56380526 19.49609375 12.02734375 C19.49609375 12.68734375 19.49609375 13.34734375 19.49609375 14.02734375 C20.21410156 14.28386719 20.93210937 14.54039062 21.671875 14.8046875 C24.66749376 16.10154597 27.04368357 17.67680748 29.68359375 19.58984375 C32.97487698 21.99935014 32.97487698 21.99935014 36.49609375 24.02734375 C36.49609375 24.68734375 36.49609375 25.34734375 36.49609375 26.02734375 C37.22183594 26.28644531 37.94757813 26.54554688 38.6953125 26.8125 C41.60775177 28.07577561 43.78137635 29.55052632 46.30859375 31.46484375 C50.96797347 34.92951072 55.69884557 38.25644133 60.49609375 41.52734375 C66.0817172 45.34245965 71.58617013 49.24489244 77.03515625 53.25390625 C80.12852642 55.48309682 83.30983229 57.56146504 86.5 59.6484375 C88.35917964 60.93276316 90.04518538 62.29283594 91.74609375 63.77734375 C94.31827292 65.88185398 96.35995472 67.01271054 99.49609375 68.02734375 C99.49609375 68.68734375 99.49609375 69.34734375 99.49609375 70.02734375 C100.25921875 70.29546875 101.02234375 70.56359375 101.80859375 70.83984375 C104.50046691 72.02927607 105.46691445 72.99816445 107.49609375 75.02734375 C109.1122588 75.93643659 110.72932301 76.84397911 112.3515625 77.7421875 C118.87909903 81.65395347 124.85966962 86.47502513 130.74609375 91.27734375 C133.90584153 93.83688827 136.98924943 95.99097154 140.58984375 97.91015625 C145.13029998 100.57116134 149.28329877 103.88313288 153.49609375 107.02734375 C154.48817369 107.61529787 154.48817369 107.61529787 155.50029564 108.21512985 C161.04723051 111.73694116 161.04723051 111.73694116 162.22824478 115.13214874 C162.49476587 117.67719935 162.50953681 120.11476864 162.43603516 122.67285156 C162.44041595 123.62636505 162.44479675 124.57987854 162.4493103 125.56228638 C162.45392094 128.70310855 162.40151507 131.84014923 162.34765625 134.98046875 C162.33780692 137.16427419 162.33121015 139.34809651 162.32772827 141.53192139 C162.31246292 146.1019101 162.27138409 150.67064259 162.20947266 155.24023438 C162.13013552 161.10730755 162.09422484 166.97356549 162.0748539 172.84111404 C162.05494422 178.42934337 162.01515111 184.01737228 161.97265625 189.60546875 C161.96586475 190.67618874 161.95907326 191.74690872 161.95207596 192.85007477 C161.92900531 195.86676629 161.89198209 198.8829323 161.85009766 201.89941406 C161.84471985 202.79916962 161.83934204 203.69892517 161.83380127 204.62594604 C161.72591967 210.79751783 161.72591967 210.79751783 159.49609375 213.02734375 C151.17031483 208.92784854 142.95909218 204.74879602 135.02734375 199.92578125 C133.74620053 199.14695974 132.46494755 198.36831875 131.18359375 197.58984375 C130.53849854 197.19780762 129.89340332 196.80577148 129.22875977 196.40185547 C124.33756579 193.45990377 119.32173055 190.9050456 114.18359375 188.41796875 C111.67708571 187.12099657 109.43191048 185.7040172 107.12109375 184.08984375 C101.29735463 180.03152647 94.87707816 177.09529927 88.49609375 174.02734375 C88.49609375 173.36734375 88.49609375 172.70734375 88.49609375 172.02734375 C87.77808594 171.929375 87.06007813 171.83140625 86.3203125 171.73046875 C83.09277566 170.92693261 81.05403397 169.64278319 78.30859375 167.77734375 C74.02115305 164.95726243 69.7320953 162.57242996 65.11328125 160.3515625 C61.04462833 158.29294558 57.16268042 155.92938726 53.2578125 153.578125 C50.71673818 152.15124168 48.2256276 151.03662494 45.49609375 150.02734375 C45.49609375 149.36734375 45.49609375 148.70734375 45.49609375 148.02734375 C41.87412181 146.53594354 38.22042757 145.23991755 34.49609375 144.02734375 C34.49609375 143.36734375 34.49609375 142.70734375 34.49609375 142.02734375 C33.62984375 141.77984375 32.76359375 141.53234375 31.87109375 141.27734375 C28.95852885 140.19861601 26.88702039 138.99540709 24.37890625 137.22265625 C21.92359505 135.66389022 19.35899349 134.42872188 16.74609375 133.15234375 C10.05141257 129.86753131 3.69910616 126.16268535 -2.50390625 122.02734375 C-2.85794067 119.91796875 -2.85794067 119.91796875 -2.82861328 117.27734375 C-2.825159 116.28871338 -2.82170471 115.30008301 -2.81814575 114.28149414 C-2.79952484 113.20762451 -2.78090393 112.13375488 -2.76171875 111.02734375 C-2.75179398 109.36916626 -2.75179398 109.36916626 -2.7416687 107.67749023 C-2.71819614 104.12716321 -2.67453743 100.57744946 -2.62890625 97.02734375 C-2.59370602 93.50587405 -2.56283687 89.98444565 -2.53756714 86.46289062 C-2.52076348 84.2701225 -2.49776936 82.07739003 -2.46755981 79.88476562 C-2.40637253 73.52785478 -2.72020432 67.33714346 -3.50390625 61.02734375 C-4.0983252 61.33414063 -4.69274414 61.6409375 -5.30517578 61.95703125 C-11.25390625 65.02734375 -11.25390625 65.02734375 -13.50390625 65.02734375 C-13.50390625 65.68734375 -13.50390625 66.34734375 -13.50390625 67.02734375 C-14.76654297 67.63642578 -14.76654297 67.63642578 -16.0546875 68.2578125 C-19.71057815 70.13337135 -23.18894306 72.19713374 -26.69140625 74.33984375 C-31.04074326 76.97646376 -35.39475636 79.56139435 -39.87890625 81.96484375 C-46.18937496 85.34748238 -52.32909427 89.01211121 -58.48828125 92.66015625 C-63.90694 95.8635756 -69.38318386 98.96110821 -74.8671875 102.05078125 C-75.83720703 102.59734375 -76.80722656 103.14390625 -77.80664062 103.70703125 C-79.80091439 104.83034704 -81.79570009 105.95275447 -83.79101562 107.07421875 C-94.22587953 112.25785924 -94.22587953 112.25785924 -103.50390625 119.02734375 C-105.50348989 119.06815158 -107.50435879 119.06988731 -109.50390625 119.02734375 C-109.55351984 113.17408469 -109.5897269 107.32094936 -109.61376953 101.4675293 C-109.62379761 99.47824978 -109.63742342 97.48898489 -109.65478516 95.49975586 C-109.67917416 92.6326129 -109.69042151 89.76566565 -109.69921875 86.8984375 C-109.70954132 86.01586777 -109.71986389 85.13329803 -109.73049927 84.22398376 C-109.73264899 72.26529617 -109.73264899 72.26529617 -105.61328125 68.12890625 C-104.8346875 67.64164062 -104.05609375 67.154375 -103.25390625 66.65234375 C-102.36703125 66.08128906 -101.48015625 65.51023437 -100.56640625 64.921875 C-99.55578125 64.29667969 -98.54515625 63.67148437 -97.50390625 63.02734375 C-96.31468771 62.26308419 -95.12726054 61.4960318 -93.94140625 60.7265625 C-91.56757637 59.18764429 -89.18793392 57.65878836 -86.80078125 56.140625 C-84.57002989 54.71072395 -82.38615978 53.2600905 -80.20703125 51.7578125 C-77.50390625 50.02734375 -77.50390625 50.02734375 -75.50390625 50.02734375 C-75.50390625 49.36734375 -75.50390625 48.70734375 -75.50390625 48.02734375 C-74.59640625 47.53234375 -73.68890625 47.03734375 -72.75390625 46.52734375 C-68.11557227 43.89579917 -63.76124595 40.85382432 -59.37109375 37.83203125 C-56.78528965 36.20445428 -54.37381808 35.04705601 -51.50390625 34.02734375 C-51.50390625 33.36734375 -51.50390625 32.70734375 -51.50390625 32.02734375 C-50.59640625 31.53234375 -49.68890625 31.03734375 -48.75390625 30.52734375 C-44.11557227 27.89579917 -39.76124595 24.85382432 -35.37109375 21.83203125 C-32.78528965 20.20445428 -30.37381808 19.04705601 -27.50390625 18.02734375 C-27.50390625 17.36734375 -27.50390625 16.70734375 -27.50390625 16.02734375 C-25.3359375 14.6171875 -25.3359375 14.6171875 -22.31640625 12.96484375 C-18.73623763 10.95842224 -15.30758731 8.94487026 -11.98828125 6.53125 C-11.4161792 6.11560791 -10.84407715 5.69996582 -10.25463867 5.27172852 C-8.63288769 4.07634677 -7.02318619 2.8646699 -5.4140625 1.65234375 C-2.50390625 0.02734375 -2.50390625 0.02734375 0 0 Z M-7.06835938 5.11450195 C-12.12026451 8.75751812 -17.26564878 12.21639667 -22.47265625 15.6328125 C-23.85233582 16.54079338 -23.85233582 16.54079338 -25.2598877 17.46711731 C-28.17365919 19.38440078 -31.08870148 21.29974042 -34.00390625 23.21484375 C-37.82732698 25.72840081 -41.65018209 28.24281621 -45.47265625 30.7578125 C-46.86899796 31.67640549 -46.86899796 31.67640549 -48.29354858 32.61355591 C-56.43866013 37.97591271 -64.55691488 43.37794056 -72.66392517 48.79768372 C-75.40065219 50.62663939 -78.13989863 52.45180556 -80.87890625 54.27734375 C-81.81089844 54.89996094 -82.74289062 55.52257812 -83.703125 56.1640625 C-85.65933198 57.46547217 -87.62070408 58.7591365 -89.5859375 60.046875 C-91.12314453 61.05814453 -91.12314453 61.05814453 -92.69140625 62.08984375 C-93.59246094 62.67894531 -94.49351562 63.26804687 -95.421875 63.875 C-96.94748047 64.94041016 -96.94748047 64.94041016 -98.50390625 66.02734375 C-99.27806885 66.36241943 -100.05223145 66.69749512 -100.84985352 67.04272461 C-104.0202258 68.73938986 -105.52455492 69.9859271 -107.50390625 73.02734375 C-109.06949837 80.32984406 -108.3437485 88.05684035 -108.06640625 95.46484375 C-108.02123389 97.55264858 -107.98017412 99.6405467 -107.94335938 101.72851562 C-107.84445641 106.83043462 -107.68932453 111.92786572 -107.50390625 117.02734375 C-103.52880592 116.43820822 -100.696936 115.2068918 -97.2421875 113.17578125 C-96.21931641 112.57958984 -95.19644531 111.98339844 -94.14257812 111.36914062 C-93.04494141 110.72009766 -91.94730469 110.07105469 -90.81640625 109.40234375 C-89.65473703 108.72255457 -88.49261932 108.04353127 -87.33007812 107.36523438 C-84.91573179 105.95576072 -82.50334703 104.54301388 -80.09228516 103.12792969 C-74.58072 99.89678829 -69.04088516 96.71466192 -63.50390625 93.52734375 C-61.33972175 92.27885729 -59.17565966 91.03015861 -57.01171875 89.78125 C-52.65325237 87.26664939 -48.29378434 84.75379714 -43.93359375 82.2421875 C-42.8353125 81.60925781 -41.73703125 80.97632813 -40.60546875 80.32421875 C-38.58232715 79.15834054 -36.55892943 77.99290654 -34.53515625 76.828125 C-23.16459181 70.2740463 -11.83745526 63.64514174 -0.50390625 57.02734375 C-0.5327742 57.81137573 -0.56164215 58.59540771 -0.59138489 59.40319824 C-0.85262144 66.8172572 -1.05013436 74.22906728 -1.17746449 81.64653778 C-1.24513607 85.4597247 -1.33675793 89.26909119 -1.48461914 93.08007812 C-1.62661817 96.76332016 -1.70373354 100.44290863 -1.73731041 104.12867737 C-1.76120866 105.52935875 -1.80789339 106.92985426 -1.87839699 108.32896423 C-2.09679675 112.84553795 -2.03844382 116.75193816 -0.50390625 121.02734375 C3.46521989 124.68651184 7.57823287 126.77967217 12.49609375 129.02734375 C13.97089117 129.84924781 15.43980161 130.68214045 16.89453125 131.5390625 C18.21849191 132.26716712 19.54403985 132.99239231 20.87109375 133.71484375 C22.42233758 134.56817005 23.97309488 135.42238122 25.5234375 136.27734375 C26.33022949 136.72207031 27.13702148 137.16679687 27.96826172 137.625 C32.47387269 140.12453925 36.95200885 142.67256146 41.43359375 145.21484375 C49.93026917 150.02972187 58.45448235 154.79267005 66.99609375 159.52734375 C78.26191745 165.77352744 89.48862649 172.08567544 100.69433594 178.43896484 C113.80107361 185.86946635 126.92010643 193.27811619 140.05859375 200.65234375 C141.11159668 201.2445874 142.16459961 201.83683105 143.24951172 202.44702148 C150.95773139 207.52203151 150.95773139 207.52203151 159.49609375 210.02734375 C159.84454336 197.70139297 160.11060583 185.37662367 160.27327633 173.04674053 C160.35137852 167.32031815 160.4571771 161.59727807 160.62768555 155.87280273 C160.79139227 150.34168976 160.88049505 144.81381551 160.9192524 139.28046608 C160.94684591 137.17618623 161.00074064 135.07207259 161.0820446 132.96918297 C161.85218766 121.98028859 161.85218766 121.98028859 158.0244236 112.07087517 C154.50149696 108.68045964 150.55471859 106.22513411 146.24118328 103.9624157 C144.01746757 102.77088131 142.02714098 101.33796737 140.015625 99.8203125 C138.78104191 98.95026848 137.54537785 98.08175615 136.30859375 97.21484375 C135.26795776 96.48273682 135.26795776 96.48273682 134.20629883 95.73583984 C131.97096148 94.16433896 129.73380501 92.59546222 127.49609375 91.02734375 C126.31805176 90.20145752 126.31805176 90.20145752 125.11621094 89.35888672 C120.09450488 85.83927161 115.06997472 82.32370658 110.04443359 78.80957031 C105.02948631 75.30227819 100.01664517 71.79197662 95.00341797 68.28222656 C90.79985728 65.33948735 86.59577234 62.39750281 82.390625 59.45703125 C70.39162236 51.06520362 58.41869762 42.63730689 46.46875 34.17578125 C35.42037682 26.35801168 24.32323299 18.61084692 13.19189453 10.91162109 C11.34540928 9.62098777 9.51091496 8.31307628 7.68701172 6.99072266 C6.79771973 6.34925293 5.90842773 5.7077832 4.9921875 5.046875 C4.19868896 4.46655518 3.40519043 3.88623535 2.58764648 3.28833008 C-1.52854829 0.80669753 -3.56673858 2.54251908 -7.06835938 5.11450195 Z " fill="#292245" transform="translate(514.50390625,275.97265625)"/>
<path d="M0 0 C0.99 0.495 0.99 0.495 2 1 C2.88684762 5.52982897 3.12411545 9.93026268 3.12025452 14.53636169 C3.12231651 16.44398033 3.12231651 16.44398033 3.12442017 18.39013672 C3.12088196 19.78149438 3.11724716 21.1728518 3.11352539 22.56420898 C3.11324303 24.0430552 3.1134022 25.52190155 3.1139679 27.00074768 C3.11425398 31.00021799 3.1083878 34.99965811 3.10139394 38.99912143 C3.09512893 43.18447639 3.09455411 47.36983211 3.09336853 51.55519104 C3.09026449 59.47397486 3.0820636 67.39274482 3.07201904 75.31152254 C3.06082911 84.32964923 3.0553402 93.3477766 3.05032361 102.3659085 C3.0398802 120.91061352 3.02229873 139.45530564 3 158 C2.34 158.33 1.68 158.66 1 159 C0.67 107.85 0.34 56.7 0 4 C-9.27303241 8.5728592 -9.27303241 8.5728592 -18.19921875 13.59375 C-19.25004639 14.2242627 -20.30087402 14.85477539 -21.38354492 15.50439453 C-23.01900269 16.49221924 -23.01900269 16.49221924 -24.6875 17.5 C-33.61143608 22.85034305 -42.58945761 28.07396336 -51.6875 33.125 C-61.83405141 38.76170736 -71.87657014 44.5575058 -81.890625 50.42578125 C-97.80966729 59.7531036 -113.82061094 68.92518642 -129.8515625 78.05859375 C-133.54167284 80.16242845 -137.22201703 82.28249246 -140.8984375 84.41015625 C-142.35092896 85.24800659 -142.35092896 85.24800659 -143.83276367 86.1027832 C-145.69949804 87.17991112 -147.56432997 88.26034458 -149.42700195 89.34448242 C-150.2593335 89.82377197 -151.09166504 90.30306152 -151.94921875 90.796875 C-153.05269653 91.43641113 -153.05269653 91.43641113 -154.1784668 92.08886719 C-156 93 -156 93 -158 93 C-158 178.14 -158 263.28 -158 351 C-165.83333333 354.91666667 -173.66666667 358.83333333 -181.5 362.75 C-182.55779663 363.28052979 -182.55779663 363.28052979 -183.63696289 363.82177734 C-187.85116886 365.93497274 -192.07731414 368.02275201 -196.30859375 370.1015625 C-197.40300781 370.64200195 -198.49742187 371.18244141 -199.625 371.73925781 C-201.81143319 372.81893811 -204.00019825 373.89391058 -206.19140625 374.96386719 C-207.18914062 375.45790039 -208.186875 375.95193359 -209.21484375 376.4609375 C-210.56243774 377.12295166 -210.56243774 377.12295166 -211.93725586 377.79833984 C-214.1440864 378.83172612 -214.1440864 378.83172612 -215 381 C-179.03 381 -143.06 381 -106 381 C-106.13921875 363.65373047 -106.13921875 363.65373047 -106.28125 345.95703125 C-106.32211337 338.6425639 -106.36095451 331.328179 -106.390625 324.01367188 C-106.43812557 312.39676721 -106.49401521 300.78032616 -106.60351562 289.16381836 C-106.68322107 280.70412485 -106.73485789 272.24480681 -106.75270796 263.78474826 C-106.76314361 259.30442401 -106.78768743 254.82517397 -106.84584045 250.34519386 C-106.90013315 246.12845273 -106.91689557 241.91322826 -106.90486145 237.69617081 C-106.9070629 236.14851958 -106.92298587 234.60081781 -106.9536438 233.0534687 C-107.17353543 221.38303631 -107.17353543 221.38303631 -104.22825623 217.91196251 C-102.13767035 216.52440128 -100.43910125 215.58199526 -98 215 C-97.34 215.33 -96.68 215.66 -96 216 C-96.56714753 216.25750691 -97.13429506 216.51501383 -97.71862888 216.78032398 C-100.3575161 218.29041009 -102.07324334 219.63126432 -104 222 C-105.20257458 227.02098469 -105.00195935 232.01196735 -104.89233398 237.13745117 C-104.88843781 238.69009425 -104.88808669 240.24274967 -104.89100647 241.7953949 C-104.88903389 246.0024979 -104.83792656 250.20773981 -104.77821994 254.41436553 C-104.72441087 258.81708784 -104.71684735 263.21988004 -104.7046051 267.62287903 C-104.6745936 275.95998117 -104.60465463 284.29623517 -104.51961046 292.63293868 C-104.40584537 303.96454085 -104.34733221 315.29639684 -104.28835309 326.62839377 C-104.27419737 329.34701544 -104.25985529 332.06563601 -104.24537659 334.78425598 C-104.2407228 335.66545288 -104.236069 336.54664978 -104.23127419 337.45454961 C-104.20229109 342.69903402 -104.16326864 347.94332778 -104.11504638 353.18767011 C-104.0853319 356.44476438 -104.05913558 359.70188259 -104.03323936 362.95900917 C-104.02016009 364.47196254 -104.00527044 365.98490148 -103.98846054 367.49781799 C-103.96563768 369.55897473 -103.94892114 371.62009631 -103.93357849 373.68132019 C-103.92226615 374.83590823 -103.91095381 375.99049627 -103.89929867 377.18007183 C-104 380 -104 380 -105 383 C-108.50725818 384.53236336 -112.1119506 383.88208489 -115.83984375 383.5703125 C-126.40991297 382.79222038 -136.96923 382.84883961 -147.5625 382.875 C-149.11698853 382.87632935 -149.11698853 382.87632935 -150.70288086 382.87768555 C-169.90325747 382.89681382 -189.08392048 383.283294 -208.2734375 383.90820312 C-212.18531327 384.00456484 -216.08715758 384.01518287 -220 384 C-221 382 -221 382 -220.38671875 380.015625 C-218.53175477 377.31939567 -216.87608774 376.85801824 -213.8125 375.75 C-209.07114232 373.90053424 -204.65075017 371.82130043 -200.1875 369.375 C-191.7217899 364.73761689 -183.00782598 360.64294801 -174.28515625 356.515625 C-172.52319539 355.67759217 -170.76146304 354.83907869 -169 354 C-168.19675293 353.62166016 -167.39350586 353.24332031 -166.56591797 352.85351562 C-162.60230792 351.19161442 -162.60230792 351.19161442 -160 348 C-159.90983147 346.6008721 -159.8816759 345.19749778 -159.88533211 343.79547215 C-159.88519116 342.90855767 -159.8850502 342.02164319 -159.88490498 341.10785252 C-159.88986418 340.12742369 -159.89482338 339.14699487 -159.89993286 338.13685608 C-159.90119513 337.10004163 -159.90245741 336.06322718 -159.90375793 334.9949941 C-159.90916364 331.49802002 -159.9216919 328.00110619 -159.93408203 324.50415039 C-159.93927178 322.00629264 -159.9439806 319.50843385 -159.94824219 317.01057434 C-159.95820337 311.62052999 -159.97100897 306.23050323 -159.98596573 300.84047127 C-160.00930439 292.32484358 -160.02232976 283.80921476 -160.03366089 275.29356384 C-160.03766253 272.38187115 -160.04173119 269.47017856 -160.04582024 266.55848598 C-160.04683946 265.83079619 -160.04785869 265.10310639 -160.04890881 264.35336538 C-160.06065608 256.06670999 -160.07453396 247.78005863 -160.08935547 239.4934082 C-160.0907079 238.73570999 -160.09206033 237.97801177 -160.09345375 237.197353 C-160.11564391 224.91309024 -160.14551218 212.62885479 -160.17732288 200.34461374 C-160.20968091 187.7415151 -160.23057059 175.13843077 -160.24159515 162.53529543 C-160.24883019 154.75640229 -160.26556963 146.97764405 -160.29439591 139.19880044 C-160.31559117 133.24209771 -160.32124519 127.28544554 -160.32102966 121.32870293 C-160.32346064 118.88047587 -160.33107999 116.43224789 -160.34415817 113.98405457 C-160.3612182 110.65258688 -160.35999465 107.32162163 -160.35403442 103.99012756 C-160.36345507 103.01192946 -160.37287571 102.03373136 -160.38258183 101.02589089 C-160.37722538 100.13636866 -160.37186894 99.24684644 -160.36635017 98.330369 C-160.36803141 97.56100059 -160.36971264 96.79163219 -160.37144482 95.99894959 C-159.73513628 92.57462216 -157.43038579 91.30025225 -154.6875 89.38671875 C-148.25515222 85.31975468 -141.71221812 81.58253321 -135 78 C-127.875169 74.10222389 -120.83287736 70.05929711 -113.78662109 66.02197266 C-112.13671811 65.0782047 -110.48447799 64.13852571 -108.83203125 63.19921875 C-99.99554191 58.17286001 -91.21418816 53.05410461 -82.43798828 47.92333984 C-74.00880573 42.99658772 -74.00880573 42.99658772 -70.28125 40.875 C-66.47861505 38.70206575 -62.70796526 36.47810102 -58.9375 34.25 C-53.79022585 31.21495389 -48.63203313 28.20375414 -43.4375 25.25 C-34.89519911 20.38989602 -26.41566099 15.42243509 -17.9296875 10.46484375 C-16.48287598 9.62348877 -16.48287598 9.62348877 -15.00683594 8.76513672 C-12.88085134 7.51709607 -10.7652352 6.25131337 -8.65722656 4.97314453 C-7.57666992 4.3232959 -6.49611328 3.67344727 -5.3828125 3.00390625 C-3.90772217 2.1058728 -3.90772217 2.1058728 -2.40283203 1.18969727 C-1.60989746 0.79709717 -0.81696289 0.40449707 0 0 Z " fill="#2A2245" transform="translate(493,364)"/>
<path d="M0 0 C3.98357876 1.47267237 7.5208821 3.36223472 11.1875 5.5 C16.54921201 8.60640002 21.94636918 11.63724785 27.375 14.625 C34.75596508 18.69750672 42.0414336 22.92229583 49.3125 27.1875 C56.45348083 31.37502986 63.60126588 35.48963907 70.921875 39.35546875 C76.11316226 42.12898643 81.22424864 45.04499967 86.34765625 47.94140625 C89.11510082 49.50543068 91.89620215 51.04137072 94.6875 52.5625 C98.31207616 54.56084047 101.80524215 56.74028173 105.3125 58.9375 C110.46916435 62.1408824 115.70699682 64.9205562 121.1640625 67.5703125 C124.73914019 69.37262439 128.12118183 71.42210214 131.53125 73.515625 C134.00649987 75.00390815 136.51721968 76.38536176 139.0625 77.75 C144.13585596 80.49472208 149.13931753 83.34995745 154.125 86.25 C154.88433838 86.68666992 155.64367676 87.12333984 156.42602539 87.57324219 C157.48744751 88.19440918 157.48744751 88.19440918 158.5703125 88.828125 C159.52574951 89.3835498 159.52574951 89.3835498 160.50048828 89.95019531 C162 91 162 91 163 93 C163.09334432 95.86831552 163.12574811 98.71218264 163.11352539 101.58056641 C163.11367142 102.46843338 163.11381744 103.35630035 163.1139679 104.27107239 C163.11326955 107.21459369 163.10548081 110.15805221 163.09765625 113.1015625 C163.09579179 115.13894618 163.09436802 117.17633031 163.09336853 119.2137146 C163.08954555 124.58297966 163.07971711 129.95221777 163.06866455 135.32147217 C163.05844574 140.7976444 163.0538699 146.27382098 163.04882812 151.75 C163.03809467 162.50001185 163.02102085 173.25000369 163 184 C162.34 184.33 161.68 184.66 161 185 C158.71547765 184.03462441 156.56887558 183.01770889 154.375 181.875 C153.73908936 181.55023682 153.10317871 181.22547363 152.44799805 180.89086914 C148.50093111 178.85108943 144.70270824 176.6707702 140.98046875 174.2421875 C137.67917793 172.17155538 134.22359605 170.38450339 130.79296875 168.5390625 C128.12832046 167.07071085 125.53193478 165.52592946 122.9375 163.9375 C118.86700135 161.46428563 114.70899007 159.30528141 110.43359375 157.2109375 C104.89752399 154.45623184 99.57737108 151.36293866 94.3125 148.125 C88.0814397 144.34502029 81.54667852 141.18843997 75 138 C75 137.34 75 136.68 75 136 C74.12190674 135.80772827 74.12190674 135.80772827 73.22607422 135.61157227 C71.06821218 135.01874002 69.35218334 134.26434924 67.3828125 133.21484375 C66.35909546 132.67210815 66.35909546 132.67210815 65.31469727 132.1184082 C64.59209717 131.7287085 63.86949707 131.33900879 63.125 130.9375 C62.373396 130.5355542 61.62179199 130.1336084 60.84741211 129.71948242 C51.14959315 124.50655915 41.61977005 119.01935676 32.19921875 113.3203125 C29.16070785 111.49612656 26.08521653 109.74381804 23 108 C23.99 107.505 23.99 107.505 25 107 C27.27148438 107.98461914 27.27148438 107.98461914 30.09375 109.53515625 C31.125 110.09783203 32.15625 110.66050781 33.21875 111.24023438 C34.3015625 111.84158203 35.384375 112.44292969 36.5 113.0625 C37.551875 113.63677734 38.60375 114.21105469 39.6875 114.80273438 C44.54429909 117.46856407 49.35585151 120.18643021 54.09375 123.05859375 C59.30273132 126.2161858 64.63410797 129.11925468 70 132 C71.83857181 132.99082948 73.67711327 133.98171529 75.515625 134.97265625 C76.44415283 135.47265137 77.37268066 135.97264648 78.3293457 136.48779297 C88.32247328 141.87571179 98.25161441 147.36194779 108.12182617 152.97167969 C116.89197461 157.9532736 125.70932628 162.84759579 134.5324707 167.734375 C141.59297339 171.64914996 148.62033488 175.61186201 155.59375 179.6796875 C158.0280876 181.10887535 158.0280876 181.10887535 161 182 C161.40382758 170.62113592 161.68093519 159.24668438 161.80052853 147.86108112 C161.85997852 142.57212434 161.96144398 137.29123922 162.16235352 132.00561523 C164.05212039 110.08947259 164.05212039 110.08947259 157.84820557 89.88275146 C152.52715246 85.14654208 146.53587468 82.81477206 139.76321411 80.8465271 C136.1287715 79.73309396 133.32369382 78.11666479 130.09375 76.125 C128.22933936 75.08302427 126.36476068 74.04134915 124.5 73 C108.61970497 64.11390086 92.75041526 55.22264659 77.0625 46 C68.1535693 40.76599419 59.13473434 35.78522353 50.02661133 30.90771484 C37.73662698 24.29599528 25.73963058 17.18049317 13.73632812 10.06542969 C12.66318359 9.43282227 11.59003906 8.80021484 10.484375 8.1484375 C9.50694336 7.57013184 8.52951172 6.99182617 7.52246094 6.39599609 C4.9947027 4.89674112 4.9947027 4.89674112 2 4 C1.97686628 15.69999714 1.95907964 27.39998887 1.94818783 39.1000042 C1.94296126 44.53233521 1.9358677 49.96465062 1.92456055 55.39697266 C1.91372366 60.63593831 1.90772145 65.87488891 1.90512276 71.1138649 C1.90326996 73.11621462 1.89965211 75.11856348 1.89426994 77.12090683 C1.88704891 79.91769972 1.88600951 82.71442982 1.88647461 85.51123047 C1.88287933 86.34560638 1.87928406 87.1799823 1.87557983 88.03964233 C1.77783309 92.15180745 1.77783309 92.15180745 3 96 C1.0463562 95.23170471 1.0463562 95.23170471 -1 94 C-2.55226203 86.24124461 -2.14615172 78.20341343 -2.1328125 70.31640625 C-2.13348837 68.89265425 -2.13446074 67.46890237 -2.13571167 66.04515076 C-2.13717963 63.06728004 -2.13506612 60.08943946 -2.13037109 57.11157227 C-2.12472052 53.3498066 -2.12802428 49.58811237 -2.13380814 45.82634926 C-2.16851324 19.32209014 -2.16851324 19.32209014 -1.5546875 7.96484375 C-1.51594513 7.24333633 -1.47720276 6.52182892 -1.43728638 5.77845764 C-1.13481066 1.13481066 -1.13481066 1.13481066 0 0 Z " fill="#292447" transform="translate(513,416)"/>
<path d="M0 0 C0 0.66 0 1.32 0 2 C-0.66 2 -1.32 2 -2 2 C-2.3403125 3.051875 -2.3403125 3.051875 -2.6875 4.125 C-4.27238244 7.59664726 -6.49129773 10.17765602 -9 13 C-12.99831856 17.60549779 -16.85719029 22.28001851 -20.5625 27.125 C-20.97951172 27.66898438 -21.39652344 28.21296875 -21.82617188 28.7734375 C-23.62887494 31.1411669 -25.34846723 33.52270085 -27 36 C-27.66 36 -28.32 36 -29 36 C-29.22816406 36.52722656 -29.45632813 37.05445313 -29.69140625 37.59765625 C-31.44112742 40.80983094 -33.66554606 43.58653632 -35.9375 46.4375 C-36.42186523 47.05004639 -36.90623047 47.66259277 -37.40527344 48.29370117 C-41.22405478 53.09429637 -45.16327511 57.7847123 -49.14746094 62.44824219 C-52.32388459 66.17350794 -55.37124842 69.9726652 -58.3515625 73.85546875 C-65.45382852 83.09514659 -72.94830686 92.02768241 -80.36376953 101.015625 C-86.63943671 108.62658036 -92.85595255 116.28227282 -99 124 C-104.44876963 123.31796694 -106.29573983 122.08418429 -110 118 C-110.845625 117.34 -111.69125 116.68 -112.5625 116 C-115 114 -115 114 -116.875 111.625 C-119.1198721 108.8519227 -121.53176246 106.75445804 -124.26171875 104.48046875 C-126.64458987 102.45101222 -128.81841949 100.24217997 -131 98 C-131.598125 97.443125 -132.19625 96.88625 -132.8125 96.3125 C-134 95 -134 95 -134 93 C-134.57878906 92.73832031 -135.15757812 92.47664063 -135.75390625 92.20703125 C-141.60386451 89.06331455 -146.39979088 83.73550939 -151 79 C-151.66 78.34 -152.32 77.68 -153 77 C-152.71128014 73.04986065 -151.54846769 71.03821076 -148.796875 68.265625 C-148.14589844 67.60949219 -147.49492188 66.95335937 -146.82421875 66.27734375 C-146.13972656 65.60832031 -145.45523438 64.93929687 -144.75 64.25 C-143.74646484 63.22326172 -143.74646484 63.22326172 -142.72265625 62.17578125 C-142.06652344 61.52480469 -141.41039062 60.87382812 -140.734375 60.203125 C-140.13850586 59.61176758 -139.54263672 59.02041016 -138.92871094 58.41113281 C-136.60995836 56.71462776 -134.84334971 56.27607044 -132 56 C-130.3671875 57.1171875 -130.3671875 57.1171875 -128.875 58.875 C-125.133531 62.97748794 -120.99204803 66.341555 -116.6484375 69.7890625 C-113.93182363 72.05691419 -111.46760694 74.46558814 -109 77 C-108.236875 77.763125 -107.47375 78.52625 -106.6875 79.3125 C-106.130625 79.869375 -105.57375 80.42625 -105 81 C-99.59971765 79.62345744 -96.46324548 77.20364199 -92.4375 73.5625 C-91.20480988 72.47742955 -89.97172767 71.39280441 -88.73828125 70.30859375 C-88.11775879 69.75800293 -87.49723633 69.20741211 -86.85791016 68.64013672 C-83.97827828 66.09803856 -81.05613252 63.60737971 -78.125 61.125 C-77.58609131 60.66730225 -77.04718262 60.20960449 -76.49194336 59.73803711 C-73.02415987 56.81110551 -69.49067517 54.02752114 -65.78125 51.4140625 C-63.32746381 49.46610066 -61.21276182 47.21610942 -59 45 C-57.41661391 43.64205414 -55.81134061 42.3093014 -54.1875 41 C-52.75664063 39.83984375 -52.75664063 39.83984375 -51.296875 38.65625 C-49.56282835 37.25789426 -47.82746082 35.86119161 -46.09179688 34.46484375 C-38.60760053 28.43973903 -31.16810219 22.43087255 -24.11328125 15.90234375 C-17.55646817 10 -17.55646817 10 -15 10 C-14.67 9.01 -14.34 8.02 -14 7 C-12.109375 5.17578125 -12.109375 5.17578125 -9.75 3.3125 C-8.98171875 2.68988281 -8.2134375 2.06726563 -7.421875 1.42578125 C-4.68332724 -0.18642832 -3.12222769 -0.29340083 0 0 Z M-5 3 C-11.07868188 7.91256739 -17.07998912 12.89816894 -23 18 C-28.92107204 23.09966093 -34.92853072 28.07986119 -41 33 C-47.44697611 38.23875804 -53.83627792 43.53621217 -60.16577148 48.91577148 C-63.5591538 51.79520268 -66.98249917 54.63189727 -70.4375 57.4375 C-75.26440134 61.36637319 -79.99185778 65.40064742 -84.70727539 69.46166992 C-90.41707146 74.37394227 -96.19810057 79.19696238 -102 84 C-105.81562395 82.70176525 -108.07090879 81.25033142 -110.8125 78.3125 C-114.02144952 74.97759172 -117.32964344 71.8923686 -120.8359375 68.875 C-124.9466979 65.31333034 -128.96469576 61.64665814 -133 58 C-137.23682827 60.26890257 -140.39375867 63.1833764 -143.6875 66.625 C-148.76115242 71.88057621 -148.76115242 71.88057621 -151 73 C-149.57027392 77.55211638 -147.2713807 80.07322601 -143.875 83.375 C-143.3807251 83.85831787 -142.8864502 84.34163574 -142.37719727 84.83959961 C-139.03170915 88.08530335 -135.57257365 91.16817339 -132.02734375 94.19140625 C-128.6839383 97.1740589 -125.5892363 100.40356692 -122.44140625 103.58984375 C-119.73501758 106.26159064 -116.91376701 108.73673257 -114.01171875 111.19140625 C-110.82983708 114.05201055 -107.96420759 117.21899602 -105.078125 120.375 C-103.17799416 122.25212327 -103.17799416 122.25212327 -101.04101562 121.77709961 C-97.5531566 120.44912649 -95.55457521 117.37895928 -93.25 114.5625 C-92.71705322 113.92578369 -92.18410645 113.28906738 -91.63500977 112.63305664 C-88.04072485 108.32176159 -84.52513734 103.94828861 -81.046875 99.54296875 C-78.64905703 96.56400024 -76.17158774 93.65683746 -73.6875 90.75 C-69.32227425 85.63285483 -65.12537067 80.40494979 -60.99169922 75.09960938 C-57.43340803 70.53540928 -53.79129897 66.04662255 -50.11328125 61.578125 C-48.05537581 59.06755645 -46.0234964 56.53835051 -44 54 C-41.19192127 50.47875841 -38.35625489 46.98228336 -35.5 43.5 C-31.29122497 38.36629826 -27.13902733 33.18998035 -23 28 C-20.9174349 25.39521858 -18.83368013 22.79138949 -16.75 20.1875 C-14.53607839 17.42030396 -14.53607839 17.42030396 -12.32617188 14.64990234 C-11.11565271 13.14388458 -9.87941215 11.65863409 -8.640625 10.17578125 C-6.79931259 8.18801845 -6.79931259 8.18801845 -7 6 C-6.01 5.67 -5.02 5.34 -4 5 C-4.33 4.34 -4.66 3.68 -5 3 Z " fill="#2A2546" transform="translate(747,224)"/>
<path d="M0 0 C3.67114927 2.0316693 6.41723496 4.22241023 9.3125 7.25 C12.08026246 10.08615857 14.85584818 12.80841098 17.875 15.375 C21.90942508 18.82378273 25.61731197 22.55932472 29.31982422 26.35693359 C31.89886987 29.01976852 31.89886987 29.01976852 35 31 C35.97085917 34.49654576 36.12552783 37.82867092 36.12698364 41.44236755 C36.13121338 43.06308922 36.13121338 43.06308922 36.13552856 44.71655273 C36.13249222 46.47999023 36.13249222 46.47999023 36.12939453 48.27905273 C36.13202301 50.14836205 36.13202301 50.14836205 36.13470459 52.05543518 C36.13834991 55.46921474 36.13749669 58.88293362 36.1343255 62.29670978 C36.13178629 65.88295238 36.13414425 69.46919247 36.13571167 73.05543518 C36.13753092 79.08701032 36.13513566 85.11857321 36.13037109 91.15014648 C36.12495115 98.09082925 36.12667554 105.03148254 36.1321975 111.97216457 C36.13676223 117.95205511 36.13736218 123.93193686 36.13475883 129.91182858 C36.13321157 133.47360246 36.13295876 137.03536258 36.13629532 140.59713554 C36.13976847 144.58357303 36.1349299 148.56996132 36.12939453 152.55639648 C36.13141876 153.71380341 36.13344299 154.87121033 36.13552856 156.06369019 C36.09278042 172.82836862 36.09278042 172.82836862 35 180 C32.56699411 181.21650295 30.96319452 181.1332218 28.25 181.125 C27.40953125 181.12757813 26.5690625 181.13015625 25.703125 181.1328125 C23 181 23 181 20.31884766 180.49780273 C16.58908403 179.93836563 12.95504757 179.87425576 9.1953125 179.90234375 C8.1093428 179.90446617 8.1093428 179.90446617 7.00143433 179.90663147 C4.70924593 179.91218925 2.41715843 179.92473367 0.125 179.9375 C-1.43749858 179.94252047 -2.99999871 179.94708241 -4.5625 179.95117188 C-8.37503835 179.96214481 -12.18750212 179.9793799 -16 180 C-17.89128241 176.79149241 -18.24788751 174.43953014 -18.24050903 170.73553467 C-18.24325836 169.6698526 -18.24600769 168.60417053 -18.24884033 167.50619507 C-18.24164978 166.34238312 -18.23445923 165.17857117 -18.22705078 163.97949219 C-18.22734283 162.74995819 -18.22763489 161.52042419 -18.22793579 160.25363159 C-18.22678153 156.88611095 -18.21675396 153.5188358 -18.20278788 150.1513586 C-18.19028185 146.63063722 -18.18911012 143.10991253 -18.18673706 139.58917236 C-18.18052191 132.92398902 -18.16411063 126.25887131 -18.14403808 119.59371686 C-18.12168016 112.00490228 -18.11068592 104.41608456 -18.10064721 96.82724524 C-18.07974443 81.21812548 -18.04456778 65.60907121 -18 50 C-18.62390625 49.7009375 -19.2478125 49.401875 -19.890625 49.09375 C-22.06982906 47.96379234 -23.43361528 46.87966166 -25 45 C-25 44.34 -25 43.68 -25 43 C-25.639375 42.731875 -26.27875 42.46375 -26.9375 42.1875 C-29 41 -29 41 -30 38 C-32.00016466 36.79117904 -32.00016466 36.79117904 -34 36 C-34 35.34 -34 34.68 -34 34 C-34.57234375 33.7525 -35.1446875 33.505 -35.734375 33.25 C-38.35010611 31.80683801 -40.14773456 30.11783778 -42.25 28 C-42.95640625 27.29875 -43.6628125 26.5975 -44.390625 25.875 C-46 24 -46 24 -46 22 C-46.57878906 21.74347656 -47.15757812 21.48695313 -47.75390625 21.22265625 C-50.94210767 19.48716574 -53.29192108 17.05484287 -55.90234375 14.55859375 C-58.28602886 12.78747576 -60.0820416 12.37045385 -63 12 C-63 11.34 -63 10.68 -63 10 C-60.83203125 9.1875 -60.83203125 9.1875 -58 9 C-55.38671875 11.0625 -55.38671875 11.0625 -52.6875 14 C-46.71500995 20.41715719 -40.84461973 25.94493775 -33.25561523 30.43188477 C-24.74074174 36.1756519 -17.71208692 42.75886999 -15.27506256 53.06606293 C-12.40304451 71.15045892 -13.40308689 89.97589872 -13.89799821 108.22014773 C-14.09711433 115.73141976 -14.16103674 123.24217 -14.21579945 130.75566089 C-14.331107 146.17530886 -14.62707508 161.58410348 -15 177 C9.255 177.495 9.255 177.495 34 178 C34.25395097 159.36996161 34.43609532 140.74363358 34.48965549 122.11203766 C34.5167904 113.45947812 34.57529094 104.80932777 34.7097168 96.15771484 C34.82691274 88.60974598 34.88313568 81.06409952 34.86853737 73.51519442 C34.86288408 69.52306252 34.88611915 65.53616772 34.98260689 61.54508972 C36.00368447 43.59024362 36.00368447 43.59024362 29.3678894 27.66357422 C25.95728128 24.16444571 22.24706159 21.33276053 18.20518303 18.60519409 C14.41584554 15.84686425 11.28126114 12.45110267 8.0625 9.0625 C4.39935295 5.05274461 4.39935295 5.05274461 0 2 C0 1.34 0 0.68 0 0 Z " fill="#282B54" transform="translate(460,567)"/>
<path d="M0 0 C0.33 0 0.66 0 1 0 C1 70.29 1 140.58 1 213 C73.27 213 145.54 213 220 213 C220.33 212.34 220.66 211.68 221 211 C221 211.99 221 212.98 221 214 C220.13271271 214.01030746 219.26542542 214.02061493 218.37185669 214.03123474 C210.16330237 214.12957033 201.95481376 214.23213296 193.74637032 214.33933926 C189.52722704 214.39429704 185.3080766 214.44767066 181.08886719 214.49731445 C177.01042102 214.54536212 172.93204996 214.59771404 168.85369492 214.65294075 C167.30455289 214.67318296 165.75539043 214.69192357 164.20621109 214.70907402 C156.72412382 214.79282053 149.30389614 214.89002514 141.86883545 215.83815002 C139.44373287 216.04817536 137.36093958 215.54055182 135 215 C132.62169488 215.10985243 130.24585925 215.28221752 127.875 215.5 C122.19724506 215.97430877 116.82453528 215.90993804 111.171875 215.15625 C108.81860349 214.84741704 108.81860349 214.84741704 106 216 C103.03199174 216.09874 100.09255837 216.13895404 97.125 216.125 C95.949375 216.13080078 95.949375 216.13080078 94.75 216.13671875 C90.22192821 216.12943889 85.76788018 215.91064005 81.25854492 215.49780273 C73.01511342 214.84904233 64.80558553 214.87429094 56.54296875 214.90234375 C54.902451 214.90421385 53.26193269 214.90563495 51.62141418 214.90663147 C47.34885049 214.91041008 43.07632197 214.92019935 38.80377197 214.93133545 C34.42582678 214.94165092 30.04787578 214.94615058 25.66992188 214.95117188 C17.11326529 214.96182684 8.55663705 214.97884573 0 215 C-1.16663465 210.8297826 -1.11844194 206.8089505 -1.08229065 202.50860596 C-1.07744696 201.21103509 -1.07744696 201.21103509 -1.07250541 199.88725066 C-1.06042517 196.98370833 -1.04105331 194.0802603 -1.02172852 191.17675781 C-1.01158628 189.09737859 -1.00189254 187.01799715 -0.99261475 184.93861389 C-0.96612827 179.28817386 -0.93334982 173.6377856 -0.89946485 167.98738575 C-0.86512729 162.08436195 -0.83654418 156.18131039 -0.80735779 150.27825928 C-0.75119909 139.0975474 -0.68984474 127.91687028 -0.62663645 116.73619628 C-0.55493394 104.00843376 -0.4890042 91.28064341 -0.42356598 78.55284739 C-0.28881323 52.3685288 -0.14678943 26.18425368 0 0 Z " fill="#273A65" transform="translate(513,532)"/>
<path d="M0 0 C-0.56714753 0.25750691 -1.13429506 0.51501383 -1.71862888 0.78032398 C-4.3575161 2.29041009 -6.07324334 3.63126432 -8 6 C-9.20257458 11.02098469 -9.00195935 16.01196735 -8.89233398 21.13745117 C-8.88843781 22.69009425 -8.88808669 24.24274967 -8.89100647 25.7953949 C-8.88903389 30.0024979 -8.83792656 34.20773981 -8.77821994 38.41436553 C-8.72441087 42.81708784 -8.71684735 47.21988004 -8.7046051 51.62287903 C-8.6745936 59.95998117 -8.60465463 68.29623517 -8.51961046 76.63293868 C-8.40584537 87.96454085 -8.34733221 99.29639684 -8.28835309 110.62839377 C-8.27419737 113.34701544 -8.25985529 116.06563601 -8.24537659 118.78425598 C-8.2407228 119.66545288 -8.236069 120.54664978 -8.23127419 121.45454961 C-8.20229109 126.69903402 -8.16326864 131.94332778 -8.11504638 137.18767011 C-8.0853319 140.44476438 -8.05913558 143.70188259 -8.03323936 146.95900917 C-8.02016009 148.47196254 -8.00527044 149.98490148 -7.98846054 151.49781799 C-7.96563768 153.55897473 -7.94892114 155.62009631 -7.93357849 157.68132019 C-7.92226615 158.83590823 -7.91095381 159.99049627 -7.89929867 161.18007183 C-8 164 -8 164 -9 167 C-12.52739683 168.54753041 -16.18025041 167.87620371 -19.9296875 167.5625 C-29.0413135 166.88954425 -38.11345304 166.92064164 -47.24505615 166.98168945 C-71.84213691 167.13807653 -96.41273612 166.64621915 -121 166 C-120.34 165.01 -119.68 164.02 -119 163 C-119 163.66 -119 164.32 -119 165 C-83.03 165 -47.06 165 -10 165 C-10.13921875 147.65373047 -10.13921875 147.65373047 -10.28125 129.95703125 C-10.32211337 122.6425639 -10.36095451 115.328179 -10.390625 108.01367188 C-10.43812557 96.39676721 -10.49401521 84.78032616 -10.60351562 73.16381836 C-10.68322107 64.70412485 -10.73485789 56.24480681 -10.75270796 47.78474826 C-10.76314361 43.30442401 -10.78768743 38.82517397 -10.84584045 34.34519386 C-10.90013315 30.12845273 -10.91689557 25.91322826 -10.90486145 21.69617081 C-10.9070629 20.14851958 -10.92298587 18.60081781 -10.9536438 17.0534687 C-11.17353543 5.38303631 -11.17353543 5.38303631 -8.22825623 1.91196251 C-3.04995162 -1.52497581 -3.04995162 -1.52497581 0 0 Z " fill="#282752" transform="translate(397,580)"/>
<path d="M0 0 C0.66 0 1.32 0 2 0 C5.85723414 39.45938867 5.85723414 39.45938867 0.04736328 49.31103516 C-5.25031756 54.23185473 -11.7239042 56.42077087 -18.49121094 58.67431641 C-24.65717629 61.00392898 -30.01255344 64.61382621 -35.5625 68.125 C-37.60209038 69.36235677 -39.64487386 70.59447161 -41.69140625 71.8203125 C-42.60937988 72.37106445 -43.52735352 72.92181641 -44.47314453 73.48925781 C-45.30700684 73.98780273 -46.14086914 74.48634766 -47 75 C-47.72429199 75.4340918 -48.44858398 75.86818359 -49.19482422 76.31542969 C-53.76047601 79 -53.76047601 79 -56 79 C-59.53308544 39.41028824 -59.53308544 39.41028824 -54.21142578 29.75488281 C-49.41399475 25.07044029 -43.50798302 23.0913553 -37.20458984 21.12402344 C-31.65405597 19.17715021 -26.78400475 16.06383622 -21.75 13.0625 C-19.91421548 12.02764573 -18.07576854 10.99749673 -16.234375 9.97265625 C-7.63380053 5.64619528 -7.63380053 5.64619528 0 0 Z M-2 4 C-9.52972867 6.97455397 -16.40074144 11.42162294 -23.2265625 15.71875 C-28.65912139 19.06738289 -34.30753136 22.04751653 -39.93359375 25.05541992 C-48.64933947 29.26272049 -48.64933947 29.26272049 -55 36 C-55.09894636 38.65213595 -55.13983438 41.27740909 -55.1328125 43.9296875 C-55.13376923 44.71642853 -55.13472595 45.50316956 -55.13571167 46.31375122 C-55.13639274 47.97983887 -55.13454352 49.64592916 -55.13037109 51.31201172 C-55.12503603 53.85780846 -55.13031114 56.40342762 -55.13671875 58.94921875 C-55.13605768 60.56770872 -55.13477591 62.18619858 -55.1328125 63.8046875 C-55.13483673 64.5652243 -55.13686096 65.32576111 -55.13894653 66.10934448 C-55.12379295 69.54175251 -55.0840139 72.71996987 -54 76 C-49.98794363 74.52216711 -46.44469279 72.61004823 -42.765625 70.4375 C-42.17431793 70.0897049 -41.58301086 69.74190979 -40.9737854 69.38357544 C-39.06382827 68.25911705 -37.15683092 67.12975024 -35.25 66 C-33.93912533 65.22612782 -32.62808955 64.45252849 -31.31689453 63.67919922 C-29.36263665 62.52638465 -27.40860543 61.37319895 -25.45547485 60.21847534 C-21.78434384 58.04852399 -18.10520862 55.89363071 -14.4140625 53.7578125 C-13.2379541 53.07525391 -13.2379541 53.07525391 -12.03808594 52.37890625 C-10.63964042 51.5682498 -9.23936612 50.7607364 -7.83691406 49.95703125 C-3.48394935 47.48518254 -3.48394935 47.48518254 0 44 C0.52322879 41.18342468 0.52322879 41.18342468 0.546875 37.96875 C0.60681641 36.16277344 0.60681641 36.16277344 0.66796875 34.3203125 C0.70857422 32.42925781 0.70857422 32.42925781 0.75 30.5 C0.79253906 29.27023437 0.83507812 28.04046875 0.87890625 26.7734375 C1.29105472 15.83232412 1.29105472 15.83232412 0 5 C-0.66 4.67 -1.32 4.34 -2 4 Z " fill="#292044" transform="translate(443,451)"/>
<path d="M0 0 C2.47680537 1.57826507 4.29744235 3.38972842 6.328125 5.51171875 C12.03238698 11.45539319 17.7169092 16.55755137 24.82470703 20.75830078 C33.33503721 26.49987815 40.37136914 33.08110612 42.79985046 43.3870697 C45.65133667 61.45402663 44.63149922 80.26399585 44.12358499 98.48782468 C43.91869302 105.98941691 43.84224872 113.49074213 43.77709937 120.99465346 C43.69762431 130.14335141 43.60412144 139.2908008 43.40231323 148.43771362 C43.37506668 149.70413193 43.34782013 150.97055023 43.31974792 152.27534485 C43.26633829 154.64890645 43.20855034 157.02237482 43.14573669 159.39570618 C43.12228683 160.43243973 43.09883698 161.46917328 43.07467651 162.537323 C43.05125624 163.44307005 43.02783596 164.3488171 43.00370598 165.28201103 C42.84587217 167.31892844 42.84587217 167.31892844 44.078125 168.32421875 C46.40630464 168.69182606 48.7399635 169.02663456 51.078125 169.32421875 C51.078125 169.65421875 51.078125 169.98421875 51.078125 170.32421875 C48.108125 170.32421875 45.138125 170.32421875 42.078125 170.32421875 C40.14414373 166.45625622 39.82943364 165.16728113 39.83761597 161.05975342 C39.83486664 159.99407135 39.83211731 158.92838928 39.82928467 157.83041382 C39.83647522 156.66660187 39.84366577 155.50278992 39.85107422 154.30371094 C39.85078217 153.07417694 39.85049011 151.84464294 39.85018921 150.57785034 C39.85134347 147.2103297 39.86137104 143.84305455 39.87533712 140.47557735 C39.88784315 136.95485597 39.88901488 133.43413128 39.89138794 129.91339111 C39.89760309 123.24820777 39.91401437 116.58309006 39.93408692 109.91793561 C39.95644484 102.32912103 39.96743908 94.74030331 39.97747779 87.15146399 C39.99838057 71.54234423 40.03355722 55.93328996 40.078125 40.32421875 C39.45421875 40.02515625 38.8303125 39.72609375 38.1875 39.41796875 C36.00829594 38.28801109 34.64450972 37.20388041 33.078125 35.32421875 C33.078125 34.66421875 33.078125 34.00421875 33.078125 33.32421875 C32.43875 33.05609375 31.799375 32.78796875 31.140625 32.51171875 C29.078125 31.32421875 29.078125 31.32421875 28.078125 28.32421875 C26.07796034 27.11539779 26.07796034 27.11539779 24.078125 26.32421875 C24.078125 25.66421875 24.078125 25.00421875 24.078125 24.32421875 C23.50578125 24.07671875 22.9334375 23.82921875 22.34375 23.57421875 C19.72801889 22.13105676 17.93039044 20.44205653 15.828125 18.32421875 C15.12171875 17.62296875 14.4153125 16.92171875 13.6875 16.19921875 C12.078125 14.32421875 12.078125 14.32421875 12.078125 12.32421875 C11.49933594 12.06769531 10.92054688 11.81117188 10.32421875 11.546875 C7.13601733 9.81138449 4.78620392 7.37906162 2.17578125 4.8828125 C-0.20790386 3.11169451 -2.0039166 2.6946726 -4.921875 2.32421875 C-4.921875 1.66421875 -4.921875 1.00421875 -4.921875 0.32421875 C-1.921875 -0.67578125 -1.921875 -0.67578125 0 0 Z " fill="#29143A" transform="translate(401.921875,576.67578125)"/>
<path d="M0 0 C3.59391114 1.33488128 6.75490696 2.96022723 10 5 C8.375 5.6875 8.375 5.6875 6 6 C4.02 5.01 2.04 4.02 0 3 C0 67.35 0 131.7 0 198 C-0.33 198 -0.66 198 -1 198 C-1.83083957 167.90232147 -2.1672867 137.82653854 -2.12877274 107.71785736 C-2.12493979 104.44864362 -2.12291622 101.17943283 -2.12130737 97.91021729 C-2.10657768 72.56301213 -2.05183201 47.21814317 -1.5625 21.875 C-1.5429425 20.8130542 -1.52338501 19.7511084 -1.50323486 18.65698242 C-1.44781633 15.78934404 -1.38454524 12.92204872 -1.31640625 10.0546875 C-1.29968369 9.24526703 -1.28296112 8.43584656 -1.26573181 7.60189819 C-1.11758094 2.23516188 -1.11758094 2.23516188 0 0 Z " fill="#291439" transform="translate(513,529)"/>
<path d="M0 0 C0.33 0 0.66 0 1 0 C1 5.28 1 10.56 1 16 C36.31 16 71.62 16 108 16 C108 16.33 108 16.66 108 17 C82.31107943 17.87325144 56.63864439 18.09142237 30.9375 18.0625 C30.171423 18.06164398 29.40534599 18.06078796 28.61605453 18.05990601 C19.07734552 18.04846054 9.53867434 18.02830505 0 18 C-0.99306914 14.36449911 -1.13346153 11.09057409 -1.125 7.3125 C-1.12757813 6.15363281 -1.13015625 4.99476563 -1.1328125 3.80078125 C-1 1 -1 1 0 0 Z " fill="#291F48" transform="translate(513,729)"/>
<path d="M0 0 C0.66 0 1.32 0 2 0 C2 15.18 2 30.36 2 46 C1.67 46 1.34 46 1 46 C0.97494385 45.14881592 0.9498877 44.29763184 0.92407227 43.4206543 C0.82793449 40.20930374 0.72877534 36.99806344 0.62768555 33.78686523 C0.58484114 32.40701849 0.54314027 31.02713567 0.50268555 29.6472168 C0.25996353 21.39766479 -0.11946073 13.20792248 -1 5 C-5.76807984 6.95551629 -10.16730746 9.14010976 -14.625 11.75 C-15.8418718 12.45282136 -17.05933503 13.15461956 -18.27734375 13.85546875 C-18.89077637 14.20915527 -19.50420898 14.5628418 -20.13623047 14.92724609 C-23.14313922 16.65797141 -26.15551083 18.37604773 -29.1875 20.0625 C-30.23292969 20.65160156 -31.27835937 21.24070312 -32.35546875 21.84765625 C-35 23 -35 23 -38 22 C-37.23445801 21.57702637 -36.46891602 21.15405273 -35.68017578 20.71826172 C-32.79054629 19.12056921 -29.90182642 17.52125462 -27.01367188 15.92089844 C-25.77281152 15.23374154 -24.53161071 14.547199 -23.29003906 13.86132812 C-10.91771701 7.88175387 -10.91771701 7.88175387 0 0 Z " fill="#274468" transform="translate(443,451)"/>
<path d="M0 0 C2.47680537 1.57826507 4.29744235 3.38972842 6.328125 5.51171875 C8.98847712 8.28372798 11.70565054 10.88636447 14.625 13.37890625 C20.39431502 18.37740295 25.70621453 23.84552971 31.078125 29.26171875 C32.14950387 30.33812529 33.22111682 31.41429889 34.29296875 32.49023438 C36.89072138 35.0988862 39.48530462 37.71066346 42.078125 40.32421875 C41.748125 41.31421875 41.418125 42.30421875 41.078125 43.32421875 C40.748125 42.33421875 40.418125 41.34421875 40.078125 40.32421875 C38.7627909 39.62270723 37.42694908 38.9589595 36.078125 38.32421875 C34.328125 36.82421875 34.328125 36.82421875 33.078125 35.32421875 C33.078125 34.66421875 33.078125 34.00421875 33.078125 33.32421875 C32.43875 33.05609375 31.799375 32.78796875 31.140625 32.51171875 C29.078125 31.32421875 29.078125 31.32421875 28.078125 28.32421875 C26.07796034 27.11539779 26.07796034 27.11539779 24.078125 26.32421875 C24.078125 25.66421875 24.078125 25.00421875 24.078125 24.32421875 C23.50578125 24.07671875 22.9334375 23.82921875 22.34375 23.57421875 C19.72801889 22.13105676 17.93039044 20.44205653 15.828125 18.32421875 C15.12171875 17.62296875 14.4153125 16.92171875 13.6875 16.19921875 C12.078125 14.32421875 12.078125 14.32421875 12.078125 12.32421875 C11.49933594 12.06769531 10.92054688 11.81117188 10.32421875 11.546875 C7.13601733 9.81138449 4.78620392 7.37906162 2.17578125 4.8828125 C-0.20790386 3.11169451 -2.0039166 2.6946726 -4.921875 2.32421875 C-4.921875 1.66421875 -4.921875 1.00421875 -4.921875 0.32421875 C-1.921875 -0.67578125 -1.921875 -0.67578125 0 0 Z " fill="#28254C" transform="translate(401.921875,576.67578125)"/>
<path d="M0 0 C0.33 0 0.66 0 1 0 C0.9969838 0.7052179 0.99396759 1.41043579 0.99085999 2.13702393 C0.96860131 8.78784777 0.97980451 15.4376789 1.02846622 22.08838272 C1.05230728 25.50763376 1.06327035 28.92591035 1.04467773 32.34521484 C1.02386246 36.27754619 1.05928234 40.20840759 1.09765625 44.140625 C1.08340103 45.36678528 1.06914581 46.59294556 1.05445862 47.85626221 C0.89826429 53.77222245 0.89826429 53.77222245 3.61837769 58.68249512 C5.72980637 59.98551255 5.72980637 59.98551255 9 61 C6 62 6 62 4.17578125 61.22265625 C2.45052083 60.1484375 0.72526042 59.07421875 -1 58 C-1.02544556 51.02572411 -1.04290697 44.05146028 -1.05493164 37.07714844 C-1.05994692 34.70670118 -1.06676073 32.33625699 -1.07543945 29.96582031 C-1.08762813 26.55012247 -1.09325649 23.13446569 -1.09765625 19.71875 C-1.10539818 18.14015198 -1.10539818 18.14015198 -1.11329651 16.52966309 C-1.11371996 10.92087933 -0.83850436 5.54747521 0 0 Z " fill="#2A2F4F" transform="translate(513,340)"/>
<path d="M0 0 C3.67114927 2.0316693 6.41723496 4.22241023 9.3125 7.25 C12.08026246 10.08615857 14.85584818 12.80841098 17.875 15.375 C21.90942508 18.82378273 25.61731197 22.55932472 29.31982422 26.35693359 C31.89886987 29.01976852 31.89886987 29.01976852 35 31 C36.38677589 35.44185764 36.03742146 39.98798351 35.87890625 44.58203125 C35.84348976 45.80329964 35.84348976 45.80329964 35.80735779 47.04924011 C35.73108411 49.63718699 35.64690482 52.22480682 35.5625 54.8125 C35.50924292 56.57224988 35.4565028 58.33201549 35.40429688 60.09179688 C35.27551841 64.39473643 35.13965162 68.69740017 35 73 C34.67 73 34.34 73 34 73 C34.08809937 71.30810547 34.08809937 71.30810547 34.17797852 69.58203125 C36.24755603 47.43689959 36.24755603 47.43689959 29.640625 27.2734375 C26.2353188 23.83980694 22.38277345 21.16529416 18.30664062 18.58447266 C14.40736611 15.90599133 11.29884655 12.48790259 8.0625 9.0625 C4.39973149 5.05228735 4.39973149 5.05228735 0 2 C0 1.34 0 0.68 0 0 Z " fill="#29224B" transform="translate(460,567)"/>
<path d="M0 0 C3.38755275 0 5.00313201 0.43021201 8 2 C9.27853242 3.43834897 10.55440862 4.88297212 11.73046875 6.40625 C13.17290084 8.27838297 13.17290084 8.27838297 15.8125 10.8125 C18 13 18 13 18 14 C18.99 14.33 19.98 14.66 21 15 C19.8125 16.5 19.8125 16.5 18 18 C15.3125 18.1875 15.3125 18.1875 13 18 C12.75765625 17.44570313 12.5153125 16.89140625 12.265625 16.3203125 C11.93046875 15.59585938 11.5953125 14.87140625 11.25 14.125 C10.92515625 13.40570312 10.6003125 12.68640625 10.265625 11.9453125 C8.78070314 9.6629326 7.49584592 8.99624102 5 8 C5 7.01 5 6.02 5 5 C3.68 4.67 2.36 4.34 1 4 C0.67 4.99 0.34 5.98 0 7 C-1.125 2.25 -1.125 2.25 0 0 Z M-3 6 C-2.34 6.33 -1.68 6.66 -1 7 C-1.99 7 -2.98 7 -4 7 C-3.67 6.67 -3.34 6.34 -3 6 Z " fill="#0961F3" transform="translate(339,707)"/>
<path d="M0 0 C0.763125 0.20625 1.52625 0.4125 2.3125 0.625 C2.6425 1.615 2.9725 2.605 3.3125 3.625 C3.9725 3.955 4.6325 4.285 5.3125 4.625 C5.3125 5.285 5.3125 5.945 5.3125 6.625 C6.3025 6.955 7.2925 7.285 8.3125 7.625 C8.3125 8.285 8.3125 8.945 8.3125 9.625 C8.9725 9.625 9.6325 9.625 10.3125 9.625 C10.3125 10.285 10.3125 10.945 10.3125 11.625 C10.9725 11.625 11.6325 11.625 12.3125 11.625 C12.60125 12.429375 12.89 13.23375 13.1875 14.0625 C14.04512568 16.7576468 14.04512568 16.7576468 16.3125 17.625 C15.3225 17.625 14.3325 17.625 13.3125 17.625 C12.6525 16.965 11.9925 16.305 11.3125 15.625 C10.3225 15.625 9.3325 15.625 8.3125 15.625 C6.62433067 13.98011706 4.95896685 12.31162458 3.3125 10.625 C2.61125 10.274375 1.91 9.92375 1.1875 9.5625 C-1.22837933 8.35456034 -2.26925254 6.89419593 -3.6875 4.625 C-3.6875 3.965 -3.6875 3.305 -3.6875 2.625 C-4.3475 2.295 -5.0075 1.965 -5.6875 1.625 C-2.6875 -0.375 -2.6875 -0.375 0 0 Z " fill="#0861F4" transform="translate(361.6875,724.375)"/>
<path d="M0 0 C0.99 0.33 1.98 0.66 3 1 C2.67 2.65 2.34 4.3 2 6 C-6.12782269 6.02319395 -14.25563149 6.04095104 -22.38347912 6.05181217 C-26.15776427 6.05702557 -29.93202673 6.06409517 -33.70629883 6.07543945 C-37.3502506 6.0863232 -40.99418058 6.09228847 -44.63814735 6.09487724 C-46.02677058 6.0967216 -47.41539265 6.10032316 -48.80400658 6.10573006 C-50.75238248 6.11301321 -52.70078041 6.11340868 -54.64916992 6.11352539 C-55.7572551 6.115746 -56.86534027 6.11796661 -58.00700378 6.12025452 C-60.78747858 6.00853882 -63.29583718 5.63378418 -66 5 C-66 4.67 -66 4.34 -66 4 C-43.89 4 -21.78 4 1 4 C0.505 2.02 0.505 2.02 0 0 Z " fill="#29153A" transform="translate(733,742)"/>
<path d="M0 0 C0.66 0 1.32 0 2 0 C2 1.32 2 2.64 2 4 C16.52 4 31.04 4 46 4 C46 4.33 46 4.66 46 5 C40.59231968 5.14375621 35.18460518 5.28612427 29.77685547 5.42724609 C27.93993154 5.47537369 26.10301725 5.52387041 24.26611328 5.57275391 C21.61493378 5.64324104 18.96372167 5.71236924 16.3125 5.78125 C15.50071289 5.80312378 14.68892578 5.82499756 13.85253906 5.84753418 C8.89978051 5.97462634 3.95440701 6.01981763 -1 6 C-1.33 5.34 -1.66 4.68 -2 4 C-1.0625 1.875 -1.0625 1.875 0 0 Z " fill="#29153A" transform="translate(274,742)"/>
<path d="M0 0 C8.17310557 2.33517302 15.45948816 6.09532261 22.98486328 9.96826172 C26.31054503 11.67099144 29.65599713 13.33359055 33 15 C33 15.66 33 16.32 33 17 C26.31686892 14.87397542 20.05744725 11.97556451 13.6875 9.0625 C12.48287109 8.52431641 11.27824219 7.98613281 10.03710938 7.43164062 C8.89435547 6.90892578 7.75160156 6.38621094 6.57421875 5.84765625 C5.52838623 5.37336182 4.48255371 4.89906738 3.4050293 4.41040039 C1 3 1 3 0 0 Z " fill="#292548" transform="translate(700,726)"/>
<path d="M0 0 C4.81459469 1.97742282 9.10127587 4.67308444 13.5 7.4375 C11.6953125 8.05859375 11.6953125 8.05859375 9.5 8.4375 C7.45708818 7.17089467 5.45309888 5.83863616 3.5 4.4375 C2.84 4.4375 2.18 4.4375 1.5 4.4375 C1.17 5.0975 0.84 5.7575 0.5 6.4375 C-1.15 6.1075 -2.8 5.7775 -4.5 5.4375 C-4.5 3.7875 -4.5 2.1375 -4.5 0.4375 C-2.5 -0.5625 -2.5 -0.5625 0 0 Z " fill="#26B9C8" transform="translate(642.5,603.5625)"/>
<path d="M0 0 C0.66 0.33 1.32 0.66 2 1 C1.24203125 1.47179687 1.24203125 1.47179687 0.46875 1.953125 C-0.1809375 2.38109375 -0.830625 2.8090625 -1.5 3.25 C-2.1496875 3.66765625 -2.799375 4.0853125 -3.46875 4.515625 C-3.9740625 5.00546875 -4.479375 5.4953125 -5 6 C-5.44572515 9.88595704 -5.44572515 9.88595704 -3.46875 11.703125 C-2.8190625 12.21359375 -2.169375 12.7240625 -1.5 13.25 C-0.52546875 14.03117188 -0.52546875 14.03117188 0.46875 14.828125 C0.9740625 15.21484375 1.479375 15.6015625 2 16 C1.67 16.66 1.34 17.32 1 18 C-0.27200971 16.89718873 -1.54255853 15.79269231 -2.8125 14.6875 C-3.52019531 14.07261719 -4.22789062 13.45773437 -4.95703125 12.82421875 C-6.70136739 11.26665665 -8.36778041 9.67341125 -10 8 C-8.7820245 4.34607349 -7.85603494 4.04168301 -4.5625 2.25 C-3.75941406 1.80140625 -2.95632813 1.3528125 -2.12890625 0.890625 C-1.07509766 0.44976563 -1.07509766 0.44976563 0 0 Z " fill="#292247" transform="translate(454,545)"/>
<path d="M0 0 C0.33 0.99 0.66 1.98 1 3 C0.34 3 -0.32 3 -1 3 C2.63441275 9.27762202 7.81293254 13.99111424 13 19 C12.67 19.66 12.34 20.32 12 21 C7.51200184 17.13564427 3.12745895 13.2488548 -1 9 C-1.66 8.34 -2.32 7.68 -3 7 C-2.67028521 3.70285207 -2.3773161 2.3773161 0 0 Z " fill="#2A193D" transform="translate(597,294)"/>
<path d="M0 0 C0.66 0.33 1.32 0.66 2 1 C0.515 2.485 0.515 2.485 -1 4 C-0.67 4.99 -0.34 5.98 0 7 C1.65 7 3.3 7 5 7 C3.8125 8.5625 3.8125 8.5625 2 10 C-1.34192692 9.75546876 -2.60543557 9.39456443 -5 7 C-7.60280568 7.32041397 -7.60280568 7.32041397 -10 8 C-6.66666667 5.33333333 -3.33333333 2.66666667 0 0 Z " fill="#29B5B9" transform="translate(420,339)"/>
<path d="M0 0 C0.66 0.33 1.32 0.66 2 1 C1.03900391 1.56267578 1.03900391 1.56267578 0.05859375 2.13671875 C-3.94816158 4.50733256 -7.87706054 6.83649966 -11.5625 9.6875 C-15.34311111 12.4913025 -19.50523442 13.7463579 -24 15 C-20.2240546 10.8573012 -15.25714953 8.49858094 -10.4375 5.75 C-9.46619141 5.1828125 -8.49488281 4.615625 -7.49414062 4.03125 C-6.56666016 3.50015625 -5.63917969 2.9690625 -4.68359375 2.421875 C-3.83337646 1.93299805 -2.98315918 1.44412109 -2.10717773 0.94042969 C-1.41180908 0.63008789 -0.71644043 0.31974609 0 0 Z " fill="#2BC4B6" transform="translate(485,371)"/>
<path d="M0 0 C0.66 0.33 1.32 0.66 2 1 C1.25130208 2.72526042 0.50260417 4.45052083 -0.24609375 6.17578125 C-0.89961942 7.75711021 -1.45891802 9.37675406 -2 11 C-2.66 9.68 -3.32 8.36 -4 7 C-5.32 7.99 -6.64 8.98 -8 10 C-8.66 9.67 -9.32 9.34 -10 9 C-6.7 6.03 -3.4 3.06 0 0 Z " fill="#41E8B2" transform="translate(727,239)"/>
<path d="M0 0 C5.0261109 0.53676912 8.62239409 2.94418501 12.8125 5.5625 C13.50537109 5.98724609 14.19824219 6.41199219 14.91210938 6.84960938 C16.61216951 7.89309456 18.30665476 8.94565296 20 10 C17 11 17 11 14.2578125 9.63671875 C13.22398437 8.99347656 12.19015625 8.35023438 11.125 7.6875 C7.48044255 5.4359125 4.03164508 3.46537653 0 2 C0 1.34 0 0.68 0 0 Z " fill="#29244A" transform="translate(516,512)"/>
<path d="M0 0 C1.32 0 2.64 0 4 0 C4 0.66 4 1.32 4 2 C6.475 2.99 6.475 2.99 9 4 C8.34 5.32 7.68 6.64 7 8 C4.03 6.35 1.06 4.7 -2 3 C-1.34 2.01 -0.68 1.02 0 0 Z " fill="#2EC7AE" transform="translate(561,420)"/>
<path d="M0 0 C0 4.95 0 9.9 0 15 C-0.33 15 -0.66 15 -1 15 C-1.33 11.37 -1.66 7.74 -2 4 C-3.0725 4.474375 -4.145 4.94875 -5.25 5.4375 C-7.80839865 6.53766332 -10.25835017 7.45167003 -13 8 C-9.81692689 4.43495812 -5.03655764 0 0 0 Z " fill="#291940" transform="translate(444,452)"/>
<path d="M0 0 C2.84983138 1.84094947 5.02495202 4.07988497 7.390625 6.5078125 C8.28265625 7.41789063 9.1746875 8.32796875 10.09375 9.265625 C10.76921875 9.96429687 11.4446875 10.66296875 12.140625 11.3828125 C9.140625 11.3828125 9.140625 11.3828125 7.5625 9.921875 C7.01078125 9.29023437 6.4590625 8.65859375 5.890625 8.0078125 C2.46820802 4.39566665 -0.007698 3.27393685 -4.859375 2.3828125 C-4.859375 1.7228125 -4.859375 1.0628125 -4.859375 0.3828125 C-1.859375 -0.6171875 -1.859375 -0.6171875 0 0 Z " fill="#2A1D42" transform="translate(401.859375,576.6171875)"/>
<path d="M0 0 C4.52615993 3.67832017 8.39424999 7.41086363 12 12 C8.20405883 11.43573848 6.41289367 9.81748138 3.75 7.125 C3.04359375 6.42632813 2.3371875 5.72765625 1.609375 5.0078125 C0 3 0 3 0 0 Z " fill="#282D56" transform="translate(414,588)"/>
<path d="M0 0 C2.52328175 0.43504858 3.73159623 0.70922925 5.5 2.625 C5.995 3.07875 6.49 3.5325 7 4 C9.02919843 3.74276031 9.02919843 3.74276031 11 3 C11.99 3 12.98 3 14 3 C13.01 4.32 12.02 5.64 11 7 C7.98342209 6.85969405 5.76158727 6.70648535 3.48828125 4.59765625 C2.26743934 3.11095765 1.12753478 1.55865102 0 0 Z " fill="#291B3F" transform="translate(637,341)"/>
<path d="M0 0 C0.99 1.32 1.98 2.64 3 4 C0.6875 5.5625 0.6875 5.5625 -2 7 C-2.99 6.67 -3.98 6.34 -5 6 C-4.67 5.01 -4.34 4.02 -4 3 C-3.34 3 -2.68 3 -2 3 C-2 2.34 -2 1.68 -2 1 C-1.34 0.67 -0.68 0.34 0 0 Z " fill="#23A1C8" transform="translate(468,532)"/>
<path d="M0 0 C0.66 0.33 1.32 0.66 2 1 C-1.38168431 4.68006822 -4.42521756 6.9785845 -9 9 C-7.48328036 4.44984107 -3.83108947 2.49942736 0 0 Z " fill="#2ABFB8" transform="translate(435,329)"/>
<path d="M0 0 C0.33 0 0.66 0 1 0 C1 2.97 1 5.94 1 9 C-1.64 8.01 -4.28 7.02 -7 6 C-6.67 5.01 -6.34 4.02 -6 3 C-4.02 3.99 -2.04 4.98 0 6 C0 4.02 0 2.04 0 0 Z " fill="#2A2A49" transform="translate(674,480)"/>
<path d="M0 0 C0.33 0 0.66 0 1 0 C1.39278091 1.72521463 1.76349151 3.45546248 2.125 5.1875 C2.33382812 6.15042969 2.54265625 7.11335938 2.7578125 8.10546875 C3.02891012 11.34552253 2.42381175 13.11546285 1 16 C0.67 16 0.34 16 0 16 C0 10.72 0 5.44 0 0 Z " fill="#2ED2B8" transform="translate(514,363)"/>
<path d="M0 0 C7.48291572 6.15034169 7.48291572 6.15034169 10 10 C6.75728494 9.4409112 5.06942576 8.5867822 3 6 C3 5.34 3 4.68 3 4 C2.01 3.67 1.02 3.34 0 3 C0 2.01 0 1.02 0 0 Z " fill="#2A2E4D" transform="translate(610,313)"/>
<path d="M0 0 C4.3890815 0.51035831 7.33708062 1.52214277 11 4 C10.67 4.99 10.34 5.98 10 7 C8.33073546 6.02526874 6.66464358 5.04510211 5 4.0625 C4.071875 3.51722656 3.14375 2.97195313 2.1875 2.41015625 C1.465625 1.94480469 0.74375 1.47945312 0 1 C0 0.67 0 0.34 0 0 Z " fill="#29284A" transform="translate(521,535)"/>
<path d="M0 0 C0.99 0 1.98 0 3 0 C3.33 0.66 3.66 1.32 4 2 C4.99 2.33 5.98 2.66 7 3 C6.67 3.66 6.34 4.32 6 5 C5.01 5.33 4.02 5.66 3 6 C0.8125 4.5625 0.8125 4.5625 -1 3 C-0.67 2.01 -0.34 1.02 0 0 Z " fill="#25B0C2" transform="translate(532,516)"/>
<path d="M0 0 C2.375 0.6875 2.375 0.6875 5 2 C6.3125 4.625 6.3125 4.625 7 7 C6.01 7.495 6.01 7.495 5 8 C2.5 5.6875 2.5 5.6875 0 3 C0 2.01 0 1.02 0 0 Z " fill="#3BE8AD" transform="translate(620,353)"/>
<path d="M0 0 C0.99 0.33 1.98 0.66 3 1 C0.03 3.64 -2.94 6.28 -6 9 C-6.66 8.34 -7.32 7.68 -8 7 C-6.74057614 5.80040625 -5.46704714 4.61560557 -4.1875 3.4375 C-3.12595703 2.44556641 -3.12595703 2.44556641 -2.04296875 1.43359375 C-1.36878906 0.96050781 -0.69460938 0.48742187 0 0 Z " fill="#2A314D" transform="translate(662,291)"/>
<path d="M0 0 C0 0.99 0 1.98 0 3 C-0.66 3 -1.32 3 -2 3 C-2.268125 3.598125 -2.53625 4.19625 -2.8125 4.8125 C-3.98493467 6.97224808 -5.19369282 8.35790256 -7 10 C-7.33 8.68 -7.66 7.36 -8 6 C-5.36 4.02 -2.72 2.04 0 0 Z " fill="#37C7AB" transform="translate(742,227)"/>
<path d="M0 0 C2.375 -0.125 2.375 -0.125 5 0 C7 2 7 2 7 5 C4.0625 4.1875 4.0625 4.1875 1 3 C0.67 2.01 0.34 1.02 0 0 Z " fill="#25AFC2" transform="translate(521,512)"/>
<path d="M0 0 C0.66 0.33 1.32 0.66 2 1 C0.90554162 1.86657116 -0.20097781 2.71792724 -1.3125 3.5625 C-1.92738281 4.03816406 -2.54226563 4.51382813 -3.17578125 5.00390625 C-3.77777344 5.33261719 -4.37976563 5.66132812 -5 6 C-5.99 5.67 -6.98 5.34 -8 5 C-6.71475739 4.13619741 -5.42157581 3.28419631 -4.125 2.4375 C-3.04605469 1.72400391 -3.04605469 1.72400391 -1.9453125 0.99609375 C-1.30335938 0.66738281 -0.66140625 0.33867188 0 0 Z " fill="#28244C" transform="translate(395,579)"/>
<path d="M0 0 C0 1.65 0 3.3 0 5 C-1.98 4.34 -3.96 3.68 -6 3 C-3.375 0 -3.375 0 0 0 Z " fill="#30C9B1" transform="translate(674,481)"/>
<path d="M0 0 C3.40312738 1.05875074 6.01353231 2.00902154 9 4 C8.67 4.66 8.34 5.32 8 6 C1.125 2.25 1.125 2.25 0 0 Z " fill="#2A1B3F" transform="translate(658,479)"/>
<path d="M0 0 C5.75 0.875 5.75 0.875 8 2 C7.67 2.99 7.34 3.98 7 5 C3.535 3.02 3.535 3.02 0 1 C0 0.67 0 0.34 0 0 Z " fill="#2A2C4C" transform="translate(606,470)"/>
<path d="M0 0 C2.97 1.65 5.94 3.3 9 5 C8.01 5.495 8.01 5.495 7 6 C3.9375 4.75 3.9375 4.75 1 3 C0.67 2.01 0.34 1.02 0 0 Z " fill="#291A3D" transform="translate(553,303)"/>
<path d="M0 0 C0.33 0.99 0.66 1.98 1 3 C-0.9375 5.6875 -0.9375 5.6875 -3 8 C-3.99 7.67 -4.98 7.34 -6 7 C-4.02 4.69 -2.04 2.38 0 0 Z " fill="#2A2D4C" transform="translate(726,248)"/>
<path d="" fill="#28163A" transform="translate(0,0)"/>
<path d="" fill="#28163A" transform="translate(0,0)"/>
</svg>
