<?xml version="1.0" encoding="UTF-8"?>
<svg version="1.1" xmlns="http://www.w3.org/2000/svg" width="1344" height="768">
<path d="M0 0 C443.52 0 887.04 0 1344 0 C1344 253.44 1344 506.88 1344 768 C900.48 768 456.96 768 0 768 C0 514.56 0 261.12 0 0 Z " fill="#29193C" transform="translate(0,0)"/>
<path d="M0 0 C0.23195945 9.4139771 0.4095049 18.82696756 0.51812172 28.24318123 C0.57026125 32.61594865 0.6409357 36.98675813 0.75439453 41.35839844 C0.86326038 45.57961016 0.92288057 49.79894269 0.94877243 54.02145004 C0.96721524 55.63004022 1.00323586 57.23853015 1.05730057 58.84631729 C1.21515762 63.73633631 1.2441457 68.24597294 0 73 C-2.96219515 76.11985951 -6.0177354 77.50994992 -10 79 C-11.21598571 79.67873609 -12.41921192 80.38142189 -13.6015625 81.1171875 C-14.59929687 81.69726562 -15.59703125 82.27734375 -16.625 82.875 C-18.16027344 83.76832031 -18.16027344 83.76832031 -19.7265625 84.6796875 C-20.85191406 85.33324219 -20.85191406 85.33324219 -22 86 C-20.39737044 90.27708143 -17.13824349 92.8616994 -13.8125 95.8125 C-12.14539474 97.30842059 -10.48471713 98.80599458 -8.85299683 100.34051514 C-7.0596932 102.01250694 -7.0596932 102.01250694 -5.15518188 103.29364014 C-1.76516805 105.9484164 -0.19576216 107.95979793 0.61219788 112.25297546 C0.81089769 116.37320104 0.78826637 120.43744705 0.68359375 124.55859375 C0.67052206 126.07314253 0.6605653 127.5877211 0.65357971 129.10231018 C0.62697608 133.0700086 0.55832608 137.03588528 0.48065186 141.00286865 C0.4087726 145.0583024 0.37701597 149.1140334 0.34179688 153.16992188 C0.26694156 161.1142065 0.14391817 169.05666608 0 177 C-7.59 177 -15.18 177 -23 177 C-22.95697754 175.2557373 -22.91395508 173.51147461 -22.86962891 171.71435547 C-22.74294332 165.89498048 -22.68267828 160.07685739 -22.66578102 154.25628471 C-22.65319771 150.73263238 -22.61552831 147.21328772 -22.51660156 143.69091797 C-21.37865849 125.65294324 -21.37865849 125.65294324 -28.86068726 110.08108521 C-31.22972422 107.90028003 -33.6405459 105.93877846 -36.32049561 104.15289307 C-38 103 -38 103 -40.57666016 100.54248047 C-41.3763623 100.03346191 -42.17606445 99.52444336 -43 99 C-45.97 99.99 -45.97 99.99 -49 101 C-49.33 126.41 -49.66 151.82 -50 178 C-67.16 178 -84.32 178 -102 178 C-99.11734851 175.11734851 -97.05807839 173.85397508 -93.45703125 172.08203125 C-92.38388672 171.55029297 -91.31074219 171.01855469 -90.20507812 170.47070312 C-88.52575195 169.64989258 -88.52575195 169.64989258 -86.8125 168.8125 C-85.68134766 168.25369141 -84.55019531 167.69488281 -83.38476562 167.11914062 C-80.59246321 165.74066222 -77.79751362 164.36786344 -75 163 C-75.01881289 162.39022529 -75.03762577 161.78045057 -75.05700874 161.15219784 C-75.50761108 146.25192762 -75.81144266 131.35394525 -75.95596504 116.44785976 C-76.02933715 109.23789188 -76.15062559 102.03493578 -76.38867188 94.82836914 C-76.59627951 88.53948525 -76.70997201 82.2567362 -76.71533382 75.964315 C-76.72134524 72.63163787 -76.78502645 69.32579696 -76.9341774 65.99465752 C-77.65259161 49.14302236 -77.65259161 49.14302236 -74 42 C-67.54665525 35.51196313 -59.32452486 31.85244515 -50.99935627 28.30626011 C-47.29734187 26.69398291 -43.95435933 24.77858892 -40.51171875 22.67578125 C-34.3434696 19.11315099 -28.17249677 15.55526549 -22 12 C-20.95650391 11.39865234 -19.91300781 10.79730469 -18.83789062 10.17773438 C-15.87251402 8.47017013 -12.90534701 6.76576607 -9.9375 5.0625 C-9.04442139 4.54792236 -8.15134277 4.03334473 -7.23120117 3.50317383 C-6.42142822 3.03935303 -5.61165527 2.57553223 -4.77734375 2.09765625 C-4.06827881 1.69039307 -3.35921387 1.28312988 -2.62866211 0.86352539 C-1 0 -1 0 0 0 Z " fill="#1C94DA" transform="translate(427,310)"/>
<path d="M0 0 C4.2904122 1.4301374 7.16412963 2.50035485 10.88671875 4.73046875 C11.81154053 5.27864258 12.7363623 5.82681641 13.68920898 6.39160156 C14.67864502 6.98424805 15.66808105 7.57689453 16.6875 8.1875 C25.69819575 13.51943739 34.76928063 18.69503746 43.9375 23.75 C51.71503182 28.04474054 59.46830397 32.36763685 67.125 36.875 C68.17288696 37.49133301 68.17288696 37.49133301 69.24194336 38.12011719 C73.86133247 40.86133247 73.86133247 40.86133247 75 42 C75.0927833 43.38160115 75.11747043 44.76788038 75.11352539 46.15258789 C75.11341209 47.47384422 75.11341209 47.47384422 75.11329651 48.8217926 C75.10813522 49.77907761 75.10297394 50.73636261 75.09765625 51.72265625 C75.0962413 52.69786728 75.09482635 53.67307831 75.09336853 54.67784119 C75.08775133 57.80609143 75.07519593 60.93427123 75.0625 64.0625 C75.05748722 66.17773334 75.05292393 68.29296781 75.04882812 70.40820312 C75.03777631 75.60549296 75.02102146 80.80274145 75 86 C75.89291748 86.28681641 76.78583496 86.57363281 77.70581055 86.86914062 C82.2384577 88.42514905 86.4862846 90.44987824 90.8125 92.5 C92.11864258 93.10521484 92.11864258 93.10521484 93.45117188 93.72265625 C94.27810547 94.11324219 95.10503906 94.50382812 95.95703125 94.90625 C96.70960205 95.26009766 97.46217285 95.61394531 98.23754883 95.97851562 C100 97 100 97 101 99 C67.67 99 34.34 99 0 99 C0 66.33 0 33.66 0 0 Z " fill="#21A3D1" transform="translate(436,388)"/>
<path d="M0 0 C3.22848528 1.18358387 5.44973413 3.05038898 8.11401367 5.21875 C12.91085139 9.03859436 17.79098959 12.64893957 22.86401367 16.09375 C24.22082642 17.01686548 25.57759597 17.94004446 26.93432617 18.86328125 C27.63847656 19.3423291 28.34262695 19.82137695 29.06811523 20.31494141 C33.1463303 23.1065661 37.1920045 25.94465919 41.23901367 28.78125 C42.07650146 29.36793457 42.91398926 29.95461914 43.77685547 30.55908203 C50.11225053 35.00126017 56.43569867 39.46031714 62.74658203 43.93725586 C63.71349976 44.6218689 63.71349976 44.6218689 64.69995117 45.3203125 C65.25344238 45.71299316 65.80693359 46.10567383 66.37719727 46.51025391 C68.43158661 48.0119285 68.43158661 48.0119285 71.48999023 49.34814453 C74.64356211 52.14736403 74.73427513 52.54477491 74.98266602 56.52050781 C74.98171809 58.44622487 74.94793082 60.37210766 74.88745117 62.296875 C74.87896149 63.31223328 74.8704718 64.32759155 74.86172485 65.37371826 C74.82815374 68.61481101 74.7528643 71.85341014 74.67651367 75.09375 C74.64641902 77.29163072 74.61904235 79.48955046 74.59448242 81.6875 C74.52835094 87.07376659 74.42796605 92.45858018 74.30151367 97.84375 C70.49189304 96.419544 67.05747399 94.66466117 63.53198242 92.640625 C61.84564697 91.67503662 61.84564697 91.67503662 60.12524414 90.68994141 C58.91311155 89.99130769 57.7010361 89.29257483 56.48901367 88.59375 C55.23278316 87.87267999 53.97643395 87.15181674 52.7199707 86.43115234 C43.69686717 81.24973491 34.71137114 76.00464674 25.73388672 70.74462891 C16.99763167 65.63791835 8.16818488 60.72041916 -0.69848633 55.84375 C-0.69848633 45.94375 -0.69848633 36.04375 -0.69848633 25.84375 C-10.83550217 31.37956716 -20.95169348 36.93323999 -30.94848633 42.71875 C-31.7087915 43.15807861 -32.46909668 43.59740723 -33.25244141 44.05004883 C-37.59342428 46.57394294 -41.8550829 49.18598828 -46.06079102 51.93017578 C-47.69848633 52.84375 -47.69848633 52.84375 -49.69848633 52.84375 C-50.91897632 45.87559216 -51.75757715 38.71730837 -49.69848633 31.84375 C-45.86984198 26.52332299 -39.49439908 23.74998084 -33.86743164 20.68554688 C-30.22652293 18.569444 -26.81329915 16.22785178 -23.37817383 13.796875 C-22.75378418 13.35747589 -22.12939453 12.91807678 -21.48608398 12.46536255 C-18.97411249 10.6961274 -16.46385669 8.92461363 -13.96081543 7.14276123 C-12.19835093 5.89533469 -10.42317984 4.66844026 -8.64379883 3.4453125 C-7.61786621 2.72682129 -6.59193359 2.00833008 -5.53491211 1.26806641 C-2.69848633 -0.15625 -2.69848633 -0.15625 0 0 Z " fill="#33D7AF" transform="translate(436.698486328125,269.15625)"/>
<path d="M0 0 C8.42717021 5.34479985 14.12175668 11.73057763 17.16796875 21.375 C18.62634923 31.49322114 17.06892816 40.61840451 11.3203125 49.1015625 C5.59406573 56.14765199 -0.82995966 60.53710451 -9.98242188 61.63232422 C-21.43067598 62.50866428 -29.97773358 61.46554996 -39.08203125 54.125 C-44.86544449 48.75633353 -49.44432641 41.87136908 -50.1328125 33.88671875 C-50.16596168 23.06903682 -48.99617108 14.77729978 -41.11328125 6.58984375 C-30.25397124 -3.55844001 -13.78736139 -6.8343547 0 0 Z " fill="#FAFAF9" transform="translate(895.83203125,351.625)"/>
<path d="M0 0 C3.62806134 1.45122453 6.74228784 2.87544185 10.11328125 4.765625 C11.10166992 5.31879395 12.09005859 5.87196289 13.10839844 6.44189453 C14.16575195 7.03856934 15.22310547 7.63524414 16.3125 8.25 C17.41754883 8.87116699 18.52259766 9.49233398 19.66113281 10.13232422 C28.22251532 14.96041845 36.7250873 19.88611638 45.2043457 24.85693359 C55.09073483 30.65214797 65.04167313 36.32928609 75 42 C75 55.86 75 69.72 75 84 C70.7095878 82.5698626 67.83587037 81.49964515 64.11328125 79.26953125 C63.18854004 78.72135742 62.26379883 78.17318359 61.31103516 77.60839844 C60.32151855 77.01575195 59.33200195 76.42310547 58.3125 75.8125 C45.01426665 67.94894685 31.52357534 60.46662465 18 53 C12.06 49.7 6.12 46.4 0 43 C0 28.81 0 14.62 0 0 Z " fill="#2BC1BC" transform="translate(436,335)"/>
<path d="M0 0 C5.89875 -0.103125 11.7975 -0.20625 17.875 -0.3125 C20.63593018 -0.38078003 20.63593018 -0.38078003 23.45263672 -0.45043945 C32.15177673 -0.5767536 39.8098904 -0.62079492 47 5 C52.08574909 10.04245277 53.40952355 14.39926068 53.6875 21.5625 C53.41957096 27.9290044 52.4292927 32.34325713 48 37 C45.1875 39.5 45.1875 39.5 43 41 C43.61830024 44.04501246 44.6076123 46.24817016 46.28515625 48.85546875 C46.73310547 49.55994141 47.18105469 50.26441406 47.64257812 50.99023438 C48.11115234 51.71533203 48.57972656 52.44042969 49.0625 53.1875 C49.99277184 54.63811489 50.92125953 56.08987606 51.84765625 57.54296875 C52.4665271 58.5023938 52.4665271 58.5023938 53.09790039 59.48120117 C54 61 54 61 54 62 C43.11517123 64.0662268 43.11517123 64.0662268 38 62 C35.1152113 58.85092743 33.54165428 54.99050707 31.75097656 51.15478516 C29.26372599 46.1257406 29.26372599 46.1257406 24.28125 43.6484375 C19.95939064 43.32267998 19.95939064 43.32267998 14 44 C14 49.94 14 55.88 14 62 C9.38 62 4.76 62 0 62 C0 41.54 0 21.08 0 0 Z " fill="#FAFAFA" transform="translate(571,350)"/>
<path d="M0 0 C6.49720808 3.59593906 10.4446271 8.99042024 12.75 16 C13.66820553 24.14640484 13.20359709 31.94847127 8.75 39 C4.49547557 43.69043882 0.00244507 47.61947995 -6.421875 48.37109375 C-7.60265625 48.39300781 -8.7834375 48.41492188 -10 48.4375 C-11.75570312 48.49744141 -11.75570312 48.49744141 -13.546875 48.55859375 C-17.25 48 -17.25 48 -25.25 43 C-25.58 49.93 -25.91 56.86 -26.25 64 C-30.54 64 -34.83 64 -39.25 64 C-39.25 42.55 -39.25 21.1 -39.25 -1 C-34.96 -1 -30.67 -1 -26.25 -1 C-25.92 0.65 -25.59 2.3 -25.25 4 C-24.77949219 3.65066406 -24.30898438 3.30132812 -23.82421875 2.94140625 C-23.20160156 2.48636719 -22.57898438 2.03132813 -21.9375 1.5625 C-21.32261719 1.11003906 -20.70773437 0.65757812 -20.07421875 0.19140625 C-14.01198759 -3.76786678 -6.31109167 -2.84524254 0 0 Z " fill="#FAF9F9" transform="translate(963.25,365)"/>
<path d="M0 0 C4.62 0 9.24 0 14 0 C14.33 1.65 14.66 3.3 15 5 C15.78375 4.360625 16.5675 3.72125 17.375 3.0625 C22.9582371 -1.32432915 29.12639748 -0.56768592 36 0 C40.14563291 1.37733199 42.98949998 3.90069467 46 7 C46.48210938 6.57847656 46.96421875 6.15695312 47.4609375 5.72265625 C48.09257813 5.17480469 48.72421875 4.62695312 49.375 4.0625 C50.00148438 3.51722656 50.62796875 2.97195313 51.2734375 2.41015625 C54.82072294 -0.48706105 57.73641461 -0.196899 62.25 -0.25 C63.55453125 -0.27578125 64.8590625 -0.3015625 66.203125 -0.328125 C70.8894058 0.07686223 74.15252297 1.31489031 77.64453125 4.5 C81.78465944 9.81708771 82.14139734 13.62562478 82.09765625 20.16796875 C82.0962413 20.96278152 82.09482635 21.7575943 82.09336853 22.57649231 C82.08777378 25.11353325 82.07522228 27.65048575 82.0625 30.1875 C82.05748432 31.90820185 82.05292153 33.62890508 82.04882812 35.34960938 C82.03780607 39.5664403 82.02054506 43.78320516 82 48 C77.71 48 73.42 48 69 48 C68.98582031 45.89238281 68.97164062 43.78476562 68.95703125 41.61328125 C68.92637412 39.56111893 68.88729575 37.5092767 68.84741211 35.45727539 C68.82428497 34.03649298 68.80984874 32.61554042 68.80444336 31.19458008 C68.79511339 29.14557534 68.75404834 27.0992265 68.70703125 25.05078125 C68.6913208 23.82012939 68.67561035 22.58947754 68.65942383 21.3215332 C67.82915206 17.13943496 66.27476019 15.64268105 63 13 C59.9134591 12.16200154 57.12410638 12.35182092 54 13 C51.49839182 14.87620613 50.38054348 16.23891303 49 19 C48.84530633 21.17674783 48.74997894 23.3578348 48.68359375 25.5390625 C48.62075195 27.49199219 48.62075195 27.49199219 48.55664062 29.484375 C48.51682701 30.86458045 48.47711478 32.24478883 48.4375 33.625 C48.39430593 35.01303415 48.35069135 36.40105528 48.30664062 37.7890625 C48.20028066 41.19258129 48.09961082 44.596277 48 48 C43.38 48 38.76 48 34 48 C33.97421875 45.80859375 33.9484375 43.6171875 33.921875 41.359375 C33.88343421 39.23115328 33.83828105 37.1031722 33.79248047 34.97509766 C33.76429912 33.49897804 33.74307034 32.02270831 33.72900391 30.54638672 C33.70753302 28.42076943 33.66086957 26.29695121 33.609375 24.171875 C33.58842773 22.8940918 33.56748047 21.61630859 33.54589844 20.29980469 C32.91619924 16.49344765 32.04076953 15.29436028 29 13 C25.93783675 12.26680598 23.08822499 12.42095781 20 13 C17.49839182 14.87620613 16.38054348 16.23891303 15 19 C14.84530633 21.17674783 14.74997894 23.3578348 14.68359375 25.5390625 C14.64169922 26.84101563 14.59980469 28.14296875 14.55664062 29.484375 C14.51682701 30.86458045 14.47711478 32.24478883 14.4375 33.625 C14.39430593 35.01303415 14.35069135 36.40105528 14.30664062 37.7890625 C14.20028066 41.19258129 14.09961082 44.596277 14 48 C9.38 48 4.76 48 0 48 C0 32.16 0 16.32 0 0 Z " fill="#F8F8F8" transform="translate(753,364)"/>
<path d="M0 0 C5.54547172 4.31838861 8.48944849 8.95225554 9.375 15.953125 C9.70156 23.87650182 8.84914928 30.27200747 3.9609375 36.6796875 C-2.26698423 42.81809085 -8.6954149 44.96480454 -17.4140625 45.0546875 C-24.93386021 44.92224488 -29.47256827 44.01468515 -34.96484375 38.87890625 C-41.2433498 32.18443292 -43.71395323 25.94273928 -43.44921875 16.74609375 C-42.56522871 10.13721587 -39.58401909 4.77655638 -34.7265625 0.2421875 C-24.01711095 -7.88778324 -11.07968354 -7.17420122 0 0 Z " fill="#F8F8F7" transform="translate(734.0390625,368.3203125)"/>
<path d="M0 0 C5.18999347 3.83721321 7.92320347 9.69642207 9.18359375 15.90234375 C9.95715146 23.81643416 8.46774511 30.23290443 3.62109375 36.58984375 C-2.31526965 42.90265947 -8.72629174 45.20662303 -17.31640625 45.52734375 C-25.11009338 45.23635846 -30.85313809 43.46018365 -36.6875 38.22265625 C-42.88071662 31.53932896 -43.33017088 24.3939805 -43.19140625 15.5390625 C-42.49497085 8.78509002 -39.29332184 5.11562179 -34.50390625 0.58984375 C-23.91244091 -7.7694418 -11.20746262 -6.77268171 0 0 Z " fill="#F9F8F8" transform="translate(675.81640625,368.09765625)"/>
<path d="M0 0 C-0.66241789 3.55079859 -1.57481771 6.67457466 -3 10 C-4.051875 9.67 -5.10375 9.34 -6.1875 9 C-12.05298373 7.49928164 -17.99092943 7.83511697 -24 8 C-24.5534764 10.07553648 -25 11.84365964 -25 14 C-24.01 14.17015625 -23.02 14.3403125 -22 14.515625 C-5.25635809 17.53159999 -5.25635809 17.53159999 -0.3203125 22.7890625 C2.12474568 26.88344987 1.46723874 31.38945299 1 36 C-0.25511664 40.12395468 -2.669067 41.66512988 -6.25 43.8125 C-15.32077492 48.01635329 -25.77117651 46.97501199 -35.046875 43.8515625 C-37 43 -37 43 -40 41 C-39.55090939 39.51800098 -39.09043436 38.03944764 -38.625 36.5625 C-38.36976563 35.73878906 -38.11453125 34.91507812 -37.8515625 34.06640625 C-37 32 -37 32 -35 31 C-33.22265625 31.77734375 -33.22265625 31.77734375 -31.0625 32.9375 C-25.73533115 35.4454204 -20.80559393 35.60536962 -15 35 C-14.01 34.505 -14.01 34.505 -13 34 C-13 32.35 -13 30.7 -13 29 C-14.0621875 28.76925781 -15.124375 28.53851563 -16.21875 28.30078125 C-34.35503516 24.18786099 -34.35503516 24.18786099 -38.5 17.625 C-39.556698 12.07733551 -39.68471095 7.56539144 -36.5078125 2.64453125 C-26.57347673 -8.19058626 -12.06695127 -4.35967272 0 0 Z " fill="#F7F6F6" transform="translate(1022,367)"/>
<path d="M0 0 C5.57733325 3.29427534 9.85517685 7.68642972 11.58984375 14.046875 C12.24802428 20.06287597 11.82621326 25.81562854 8.58984375 31.046875 C4.94009786 34.90560429 1.22756725 38.82463586 -4.23828125 39.28515625 C-15.68741189 39.53348214 -15.68741189 39.53348214 -20.41015625 35.046875 C-26.43577637 28.71658869 -27.9981232 24.07874742 -27.8515625 15.3828125 C-27.06043304 9.40383409 -24.18902703 5.64897283 -19.875 1.609375 C-14.28670966 -2.34499261 -6.2248121 -2.4616761 0 0 Z " fill="#2A1B3D" transform="translate(887.41015625,361.953125)"/>
<path d="M0 0 C0.99 0.495 0.99 0.495 2 1 C1.46632813 1.57105469 0.93265625 2.14210937 0.3828125 2.73046875 C-4.41258783 7.94899264 -8.85095116 13.31043066 -13.12207031 18.96289062 C-16.60751746 23.55112359 -20.28157748 27.95017698 -24.02807617 32.32641602 C-26.81447863 35.58505652 -29.52952056 38.88461312 -32.1875 42.25 C-35.94650523 46.99739791 -39.92971103 51.51835204 -44 56 C-48.09865145 54.3898155 -50.76269812 51.42229455 -53.75 48.3125 C-57.88598401 44.07368766 -62.07963771 40.05688139 -66.671875 36.3046875 C-67.11015625 35.87414062 -67.5484375 35.44359375 -68 35 C-68 34.34 -68 33.68 -68 33 C-66.46875 31.4921875 -66.46875 31.4921875 -64.5 29.875 C-63.8503125 29.33617187 -63.200625 28.79734375 -62.53125 28.2421875 C-62.0259375 27.83226562 -61.520625 27.42234375 -61 27 C-57.24269753 28.6281644 -54.383177 31.01401917 -51.25 33.625 C-50.26515625 34.44226563 -49.2803125 35.25953125 -48.265625 36.1015625 C-47.51796875 36.72804688 -46.7703125 37.35453125 -46 38 C-41.85584795 36.29957397 -38.75620163 33.3584817 -35.4375 30.4375 C-34.17793997 29.34276361 -32.91751466 28.24902202 -31.65625 27.15625 C-31.03492188 26.61742187 -30.41359375 26.07859375 -29.7734375 25.5234375 C-27.36225841 23.4521603 -24.90532091 21.44078991 -22.4375 19.4375 C-18.28060952 16.05771367 -14.15879997 12.64025165 -10.0625 9.1875 C-9.51843506 8.73109131 -8.97437012 8.27468262 -8.41381836 7.80444336 C-5.47521904 5.3202619 -2.67554721 2.76580663 0 0 Z " fill="#38DDAC" transform="translate(542,245)"/>
<path d="M0 0 C0.79291871 6.92138273 1.60021858 14.15223029 0 21 C-3.62706255 25.29746748 -7.87032809 26.90026155 -13 29 C-15.27998984 30.26041024 -17.46977161 31.62904063 -19.6875 33 C-24.74330357 36 -24.74330357 36 -27 36 C-27 28.74 -27 21.48 -27 14 C-23.47840679 12.00222209 -19.95551218 10.00709084 -16.42871094 8.01855469 C-15.22895097 7.34105082 -14.03005184 6.66202019 -12.83203125 5.98144531 C-11.11163831 5.0044672 -9.38789591 4.03339468 -7.6640625 3.0625 C-6.62717285 2.47597656 -5.5902832 1.88945312 -4.52197266 1.28515625 C-2 0 -2 0 0 0 Z " fill="#291A3D" transform="translate(404,350)"/>
<path d="M0 0 C3.79988659 1.29052752 5.50506993 2.32359557 7.875 5.5625 C9.38450339 10.17487147 9.95298894 14.20480171 9 19 C6.7178619 22.97580034 4.37181953 25.54272682 0 27 C-4.1144568 27.3881563 -6.49911017 27.24081242 -10.25 25.4375 C-14.49924677 21.67112218 -15.75412475 18.00212703 -16.4375 12.4375 C-15.80615637 7.4769429 -13.59570301 4.70968179 -10.25 1.125 C-6.86362811 -0.56818595 -3.66379971 -0.50827279 0 0 Z " fill="#2C1D3F" transform="translate(953,375)"/>
<path d="M0 0 C3.14847243 1.300456 4.61740061 2.5514352 6.8125 5.125 C8.95305949 10.30740719 8.661614 15.05191435 6.875 20.3125 C4.56726984 23.62024657 2.61042615 25.19478692 -1 27 C-5.22989818 27.60427117 -7.39497128 27.29087919 -11.25 25.4375 C-15.49924677 21.67112218 -16.75412475 18.00212703 -17.4375 12.4375 C-16.80711939 7.48450949 -14.58190443 4.75767159 -11.3125 1.125 C-7.61367749 -0.67442716 -4.03041366 -0.52633309 0 0 Z " fill="#2B1C3D" transform="translate(663,375)"/>
<path d="M0 0 C3.08002555 1.27218447 4.59345012 2.55139324 6.8125 5 C8.6529005 9.64943285 8.65053986 14.07035347 8 19 C6.2904206 22.60911206 5.1005495 24.34561921 1.6875 26.375 C-2.29142949 27.30033244 -5.98928714 28.15225782 -9.7109375 26.01953125 C-13.435775 23.06691616 -15.66709 20.34585422 -16.3359375 15.6328125 C-16.42537053 9.89121169 -15.93878794 6.50147193 -12 2 C-7.95101194 -0.69932537 -4.75067841 -0.53528771 0 0 Z " fill="#2A1B3D" transform="translate(721,375)"/>
<path d="M0 0 C2.866875 -0.061875 5.73375 -0.12375 8.6875 -0.1875 C10.02880981 -0.22846802 10.02880981 -0.22846802 11.3972168 -0.27026367 C16.08935444 -0.3192004 19.22122733 -0.09960512 23 3 C25.81172128 7.21758192 25.9318711 11.04844761 25 16 C22.8887997 18.86890102 20.17377131 20.41311435 17 22 C14.11426648 22.07199934 11.25934885 22.0927068 8.375 22.0625 C5.61125 22.041875 2.8475 22.02125 0 22 C0 14.74 0 7.48 0 0 Z " fill="#2D1F40" transform="translate(585,361)"/>
<path d="M0 0 C0.495 1.485 0.495 1.485 1 3 C-0.05058594 3.50789063 -1.10117187 4.01578125 -2.18359375 4.5390625 C-9.01073919 7.87449908 -15.58222771 11.18537353 -21.8046875 15.57421875 C-24.40287626 17.26165451 -27.08749001 18.5865201 -29.875 19.9375 C-35.0050786 22.42719332 -39.76214841 25.26023312 -44.52734375 28.38671875 C-45.34332031 28.91910156 -46.15929687 29.45148438 -47 30 C-48.27037109 30.87591797 -48.27037109 30.87591797 -49.56640625 31.76953125 C-52.40041398 33.20245651 -53.09165568 32.90796903 -56 32 C-55.33170166 31.6282666 -54.66340332 31.2565332 -53.97485352 30.87353516 C-41.85484696 24.12575764 -29.76584567 17.34465034 -17.8359375 10.265625 C-11.93499217 6.76675419 -5.96666071 3.38520528 0 0 Z " fill="#26C0B7" transform="translate(426,310)"/>
<path d="M0 0 C0.66 0.33 1.32 0.66 2 1 C1.0615625 1.54785156 0.123125 2.09570312 -0.84375 2.66015625 C-7.5295489 6.65633511 -7.5295489 6.65633511 -11.61572266 12.94580078 C-12.14554482 17.35053532 -11.68274201 21.62344865 -11 26 C-10.23300781 25.68289063 -9.46601563 25.36578125 -8.67578125 25.0390625 C-6.11078861 24.04302156 -3.70547223 23.46379524 -1 23 C-9.44827586 30 -9.44827586 30 -13 30 C-15.07429074 12.05308924 -15.07429074 12.05308924 -11.72412109 7.12207031 C-8.28644223 3.8928299 -4.30059201 1.86083308 0 0 Z " fill="#2AC0C1" transform="translate(400,292)"/>
<path d="M0 0 C0.66 0.33 1.32 0.66 2 1 C1.40832031 1.64066406 0.81664062 2.28132812 0.20703125 2.94140625 C-4.20993048 7.77628605 -8.33946557 12.56823923 -12 18 C-12.66 17.67 -13.32 17.34 -14 17 C-12.67166417 11.33355474 -10.13264772 8.76030014 -5.875 5.125 C-5.31167969 4.62742188 -4.74835937 4.12984375 -4.16796875 3.6171875 C-2.78791055 2.40086502 -1.39519522 1.19892923 0 0 Z " fill="#3BCF9F" transform="translate(542,245)"/>
<path d="M0 0 C0.66 0.33 1.32 0.66 2 1 C0.27136297 2.10499565 -1.45793388 3.20895914 -3.1875 4.3125 C-4.15042969 4.92738281 -5.11335938 5.54226563 -6.10546875 6.17578125 C-7.53826172 7.07876953 -7.53826172 7.07876953 -9 8 C-9.86238281 8.59167969 -10.72476562 9.18335938 -11.61328125 9.79296875 C-14.41067129 11.2076881 -15.12366566 10.89427781 -18 10 C-15.04894616 8.2995208 -12.08809878 6.61688907 -9.125 4.9375 C-8.28324219 4.45216797 -7.44148438 3.96683594 -6.57421875 3.46679688 C-5.76855469 3.01240234 -4.96289062 2.55800781 -4.1328125 2.08984375 C-3.38918457 1.66566162 -2.64555664 1.24147949 -1.87939453 0.80444336 C-1.25919434 0.53897705 -0.63899414 0.27351074 0 0 Z " fill="#23ACC9" transform="translate(388,332)"/>
<path d="M0 0 C0.66 0.33 1.32 0.66 2 1 C1.21072301 2.12667784 0.41848345 3.25128067 -0.375 4.375 C-0.81585938 5.00148438 -1.25671875 5.62796875 -1.7109375 6.2734375 C-3 8 -3 8 -5 10 C-5.66 8.68 -6.32 7.36 -7 6 C-4.69 4.02 -2.38 2.04 0 0 Z " fill="#30CEA6" transform="translate(481,272)"/>
<path d="M0 0 C-1 3 -1 3 -3.1796875 4.421875 C-4.06914062 4.86015625 -4.95859375 5.2984375 -5.875 5.75 C-6.75929688 6.19859375 -7.64359375 6.6471875 -8.5546875 7.109375 C-11 8 -11 8 -14 7 C-12.04480616 5.82807953 -10.0857461 4.6626071 -8.125 3.5 C-7.03445313 2.8503125 -5.94390625 2.200625 -4.8203125 1.53125 C-2 0 -2 0 0 0 Z " fill="#24AFB7" transform="translate(403,324)"/>
<path d="M0 0 C0.99 0.33 1.98 0.66 3 1 C1.37829621 2.00533667 -0.24747237 3.00411907 -1.875 4 C-3.23238281 4.8353125 -3.23238281 4.8353125 -4.6171875 5.6875 C-7 7 -7 7 -9 7 C-7.93277615 4.08938949 -7.36086255 3.17140971 -4.5 1.8125 C-3.2625 1.4103125 -3.2625 1.4103125 -2 1 C-1.34 0.67 -0.68 0.34 0 0 Z " fill="#27B1B7" transform="translate(396,315)"/>
</svg>
